<svg xmlns="http://www.w3.org/2000/svg" width="1024" height="1024" viewBox="0 0 1024 1024" stroke-linejoin="round" stroke-width="1.5"><path fill="#000" stroke="#000" d="M778.8 861.7C731 913 665 946.7 597.9 965.4q-36.5 10.5-74.3 9.8-14.3-.4-25.6-7.9c-6-4-40.8 22.2-94-1l-66.6-29.1c-22.7-10-43-22.5-60.6-39.9L237 858l-21.6-25.5-20.7-34.6-39.1 26.5q-7.9 5.3-8.5 14.8l-1 24.5c-.5 12.5-8.7 22.9-20.8 26.2-9.6 2.6-18.5-1.7-23.3-10.5-6-10.8-9.8-22.8-12.8-35-2.5-10.5.4-20 7.2-28.5 11-13.6 23.4-25.3 36.7-36.9 12.1-10.7 24.5-20 39-27.7-5.1-12.3-8.5-23.8-11.2-36.6-6-27-9.8-53.7-11.1-81.4l.5-51.7q-3.8.4-7.3 2c-9.4 4.8-19.1 9.1-27.7 15.5l-7.7 13.5c-7.5 13.2-21.8 21-37.5 19.7-15.6-1.2-20.9-18.4-21.1-34.1-.2-10.4 4.8-18.9 13.6-24.4l50.9-31.8q18.3-11.7 41.2-8.6c5.9-42 21.3-82.6 40.1-120L153.3 389c-13.4-7.8-21.4-20.2-22.3-36-1.3-9.7-.4-19.4-.6-29.4-.6-24 3.9-49.6 30-50.1 15.7-.3 26.2 11.6 25.2 27.2-.9 12.9-1.8 25.7-1.5 38.5.1 4.7 2 7.4 5.6 9.6 11.1 6.5 21.7 13 32.7 20.7C254.4 325.9 316 267 366.1 250l22.7-7.7c7.8-30.6 29-59.4 57-73.7l21.5-11-4.8-23.7c-1.9-9.2-4.5-17.9-8.7-26.3-2.2-4.5-5.5-8.5-10.6-9.7l-12-2.7c-12.4-3-19.5-14.6-17.7-27.3 1.8-12 11.9-21.2 24.3-19.7l21.4 2.6c12.4 1.5 21.4 11.7 26.8 22.7 10.6 23 14.5 48.7 17.2 74 29.7-4.7 52.8-1.5 81.4 8 9-18.3 19.7-35 32-51 8.5-10.8 19-17.8 31.4-23.2 11.1-4.9 22.6-6.5 34.3-2.2 11.4 4.1 17.6 15.1 15.6 26.8-2 11.4-12 19.6-24.2 19.6h-12c-4.6.5-8.2 2.8-11.6 6q-17.5 17.3-29.8 38.7c32 18.3 42 36.2 55 67.8q4.7 10.8 6 22.3c12.5 5.3 23.6 11.5 34.2 19.6 17.2 13.3 33 27.3 47.1 44 17.7 21 33.4 42.6 49.5 65.5l35.2-19.2c3.4-2 5.8-3.8 6-8.1l-.2-36.6c-.1-13.8 9-23.3 22.4-25.2 11.6-1.6 22.5 3.3 26.9 14.8 4 10.8 5.7 22.6 4.2 34.2l-3.7 27.5c-3 12.6-9.6 23.3-20.8 30L835.9 434l13.3 32.6 16.7 55 5.9 36c14.2-1.2 27.6 1.4 39.1 9.5l50.9 35.6c9.2 6.5 14.2 16.2 13 27.6-.8 7.8-2.4 16-7 22.1-4.8 6.6-11.7 9.8-19.6 9-31.5-3-36.4-33.3-40.4-36L882.1 609q-4-2.6-8.3-2.7c.3 26.5-2.5 51.6-8 77.2L855.2 728c-2.8 11.5-6.4 22-11.5 32.8 15.7 10.2 29 21.5 42.6 33.5 9 8 17.2 16 24.3 25.5q9.3 12.5 7 27.8l-6 36.3c-1.9 11.8-11.6 19.5-23.2 21-10 1.3-18.5-3.4-23-12.4q-4.5-9-4.6-19.1v-26.6c.7-4.6-1.1-7.9-4.4-10.6l-36.4-30c-12.5 20-25.3 38.5-41.2 55.4M491.3 203.3c0-8.1-6.6-14.7-14.8-14.7-8 0-14.7 6.6-14.7 14.7s6.6 14.7 14.7 14.7 14.8-6.6 14.8-14.7m116.7 4.4c0-8.2-6.6-14.8-14.8-14.8-8.1 0-14.7 6.6-14.7 14.8 0 8.1 6.6 14.7 14.7 14.7s14.8-6.6 14.8-14.7m-236 72.5c-15 6.7-28.5 15-41.5 25.5-43 35-76.1 68.8-103.5 117.6-8 14.4-15.8 28.2-20.3 44l-14 49.7c-6 21.1-9.4 41.6-11.2 63.6-1.5 18.4-3.2 35.8-1.3 54.2 2.3 22.4 5.3 44.1 10 66.3 3.7 18 9.8 34.2 17.3 50.8l16 34.8c4.8 10.6 12 19.2 19.4 28.5q29.3 36.8 65.5 67c27 22.4 83.6 44.6 118.3 55.8 19 6 45.5 8.4 51.5-11.3 2.5-8.4 2.9-17.4 2.4-26.4l-1.6-29 1.8-66.8 1.4-46.1c.5-15.3 2.6-29.9 1.5-45.2l-.2-30.5 6.3-72.8c1.6-18.1 2.1-35.5 5-53.4 2.7-16.8 2-32.6 3.3-49.8l10-126.7.6-46.4 3.3-49.4c.4-5.7-4.2-8.2-9-9.4l-24.3-6q-37.8-9.5-75.4.7c-11 3-21 6.2-31.3 10.7m137.3 507.5-1 61-.1 33 .8 48.7c0 8 6.2 12.7 13.6 13l18.4 1c22.7 1 44.2-4.7 65.3-12.8l54.5-21c13.8-5.4 25.5-13 36.8-22.2l17.6-14.5 30.2-27.3q39.6-39.2 63-89.7c7-15.4 14.2-30.1 17.7-46.9 6.1-29.6 11.2-58.6 14.2-88.9 3.6-36.5-1.2-72-10.6-107.2-5.2-19.3-12-36.9-19.3-55.4-16.6-41.5-44.7-93-77.7-123.1-14.4-13.2-29.3-24.7-45.5-35.6-14.7-10-30.6-17.4-48.2-20.9-20.6-4.1-41.1-4.3-62-2.4l-29.4 2.7c-7 .7-9.4 6.5-10 12.3-2.3 18-4 35.1-2.8 53.2 1 16 .2 31-1.2 47l-6.4 74.6-2.8 36c.7 14.8.7 29-1.4 43.7-2.2 15.6-2.7 30.7-4 46.6l-6.3 72.7c-2.7 31.3-3.3 61.7-3.3 93Z"/><path fill="#fff" stroke="#fff" d="M578.5 207.7c0-8.2 6.6-14.8 14.7-14.8s14.8 6.6 14.8 14.8c0 8.1-6.6 14.7-14.8 14.7-8.1 0-14.7-6.6-14.7-14.7m-116.7-4.4c0-8.1 6.6-14.7 14.7-14.7s14.8 6.6 14.8 14.7-6.6 14.7-14.8 14.7c-8 0-14.7-6.6-14.7-14.7"/><path fill="#000" stroke="#000" d="M391.3 716c-8.3 10.5-19.8 15.6-32.8 15.2-9.1-.3-17.6-1.6-26.4-4.4-20.4-6.7-35-25.6-34.3-47.7.7-19.8 9.4-39 24.2-52 16.4-14.6 40.4-17.4 60-8.3 23.7 11 32.9 44 25.3 67.6q-5.3 16.1-16 29.5"/><path fill="#bc3a3a" stroke="#bc3a3a" d="M479 871.3c-9.9-8.3-16.1-9.3-29-8-3.8-14.6-14.8-25.7-28.9-30.2l-40.7-12.9-19.9-9.4c-4.2-7.8-8.9-15.5-16.3-20.5-8.4-5.8-16.4-11.3-23.6-19-7.6-9.1-13-19.5-18.2-30.4-4.6-9.6-12.5-16.1-22.8-18.9-8.2-18-12.5-36.7-15.6-56.2-1.4-9-8-15.7-15.6-19l.8-20.2c-2.4-17.3-3.4-34-3-51.5.3-9.9-5-18.6-14.5-22.2 1.6-13.4 3.5-26 6.7-39 4-16 10.5-30.2 16-45.6C260.6 451 267 435 277 419.7q3.8-6 6.2-12.7c2.9-.7 4.1-4 6-6.5 9.4-13 18.9-25.6 29.7-37.5l6-7.5c5.2-6.7 10.7-13 16-20.3 9-12.8 19.4-23.8 30.8-34.5 3.4-3.2 6.9-16.1.4-20.5 10.3-4.5 20.3-7.8 31.3-10.7q37.6-10 75.4-.8l24.3 6.1c4.8 1.2 9.4 3.7 9 9.4l-3.3 49.4-.5 46.4-10 126.7c-1.4 17.2-.7 33-3.4 49.8-2.9 18-3.4 35.3-5 53.4l-6.3 72.8.2 30.5c1.1 15.3-1 30-1.5 45.2l-1.4 46.1ZM299 438c13.7-18.3 26.6-36.7 41.4-54.2 3.1-3.8 4.1-8.8.3-12.3-3.3-3-8.7-2.3-11.8 1.7l-42.2 56c-2.7 3.7-1 9 2.6 11 3 1.5 7 1.3 9.7-2.2m83.4 94.8c13-7.2 23.3-17.6 31.3-29.7 9.1-13.6 11.2-29.8 7.3-45.6-4.1-16.7-16.1-30.5-32.8-35.2-12.2-3.5-24.7-1-35.7 4.8-13 6.7-22.7 17.1-30.7 29.1-12 17.8-12.5 39-2.6 58 11.9 22.8 39.8 31.5 63.2 18.6m9 183.2q10.7-13.4 16-29.5c7.6-23.6-1.6-56.7-25.3-67.6-19.6-9-43.6-6.3-60 8.2-14.8 13.1-23.5 32.3-24.2 52-.8 22.2 14 41 34.3 47.8 8.8 2.8 17.3 4 26.4 4.4 13 .4 24.5-4.7 32.8-15.3"/><path fill="#000" stroke="#000" d="M382.3 532.7c-23.4 12.9-51.3 4.2-63.2-18.6-10-19-9.4-40.2 2.6-58 8-12 17.7-22.4 30.7-29.1 11-5.7 23.5-8.3 35.7-4.8 16.7 4.7 28.7 18.5 32.8 35.2 3.9 15.8 1.8 32-7.3 45.6-8 12-18.3 22.5-31.3 29.7"/><path fill="#8a2020" stroke="#8a2020" d="M372 280.2c6.5 4.4 3 17.3-.4 20.5-11.4 10.7-21.7 21.7-30.9 34.5-5.2 7.2-10.7 13.6-16 20.3.1-4.1-2-7.8-5.5-8.9-4-1.3-6.9.6-9.5 3.7-12.6 14.7-24.8 29.3-35.5 45.3-2 3-.7 7.2.9 9.1 2 2.4 5.2 3 8 2.3q-2.4 6.7-6.2 12.7c-10 15.3-16.3 31.4-22.5 48.6-5.5 15.4-12 29.6-16 45.6-3.2 13-5.1 25.6-6.7 39 9.5 3.6 14.8 12.3 14.5 22.2-.4 17.5.6 34.2 3 51.5l-.8 20.2c7.6 3.3 14.2 10 15.6 19 3.1 19.5 7.4 38.2 15.6 56.2 10.3 2.8 18.2 9.4 22.8 19 5.1 10.8 10.6 21.2 18.2 30.4 7.2 7.6 15.2 13 23.6 18.9 7.4 5 12.1 12.7 16.3 20.5l20 9.4 40.6 13c14.1 4.4 25.1 15.5 28.9 30 12.9-1.2 19.1-.2 29 8.1l1.6 29c.5 9 .1 18-2.4 26.4-6 19.7-32.4 17.4-51.5 11.3-34.7-11.2-91.3-33.4-118.3-55.8q-36.2-30.3-65.5-67c-7.4-9.3-14.6-17.9-19.5-28.6L207.5 752c-7.5-16.6-13.6-32.9-17.3-50.8-4.7-22.2-7.7-43.9-10-66.3-2-18.4-.2-35.8 1.3-54.2 1.8-22 5.2-42.5 11.2-63.6l14-49.6c4.5-16 12.3-29.7 20.3-44.1 27.4-48.8 60.5-82.7 103.5-117.6 13-10.6 26.5-18.8 41.5-25.5"/><path fill="#000" stroke="#000" d="M298.9 437.9c-2.6 3.5-6.6 3.7-9.7 2.1-3.6-1.9-5.3-7.2-2.6-10.8l42.2-56c3-4.1 8.5-4.8 11.8-1.8 3.8 3.5 2.8 8.5-.3 12.3-14.8 17.5-27.7 35.9-41.4 54.2m25.8-82.4-6 7.5c-10.7 12-20.2 24.5-29.7 37.5-1.8 2.5-3 5.8-6 6.5-2.7.8-6 0-8-2.3-1.5-2-2.8-6-.8-9 10.7-16 22.9-30.7 35.5-45.4 2.6-3 5.4-5 9.5-3.7 3.6 1.1 5.6 4.8 5.5 8.9"/><path fill="#e07a76" stroke="#e07a76" d="M776.5 494.4c-15 8.5-36.9-7.6-45.5-27.5l-16-37.1c-7.2-16.5-18-29.6-32.6-40.4L634.5 358c-12.6-8.2-23.6-20.6-24-36-.4-12 9.6-20.5 20.7-20 5.3.4 9.7 1.4 14.5 3.6q37.1 16.9 69.6 41.6c10.3 7.9 19.2 16.2 27 26.6 21.3 28.4 35.8 60.6 44 95.1 2.3 10.2-.9 20.5-9.8 25.5"/><path fill="#000" stroke="#000" d="M658.5 748.4c-14.9.9-27.7-6-35.2-18q-10.6-16.4-13.9-35.6c-5.2-29.8 13.5-57 42.3-64.3 12-3.1 24-3.7 35.5 2 26.2 13.2 40.9 43.4 30.2 72-9.2 24.9-31.7 42.4-58.9 44m24.5-198q-14.4 6.5-29.5 7.2c-35.8 2-52-33.6-50.8-66.6.5-16.6 7.4-32 19.2-43.4 9.7-9.4 22.5-11.7 35.3-8.2 13.3 3.5 25.3 9.4 34.2 20.1C701 471.3 707.6 485 710 500c3.4 21.2-7.1 41.7-27 50.6m71.7 211.7c-2.8 4-7.1 5.2-11 2.9-3.1-2-4.6-7.1-2-10.8l30.8-43.7c2.4-3.4 7.3-3 9.7-1.2 3.2 2.4 4.5 6.9 2.1 10.3Zm5.4 36.4c-2 3-6.9 2.6-9.6 1.2s-4.8-6.5-2.5-9.9l29-42.4c2.4-3.3 7.3-3.2 10-1.5s5 6.2 2.7 9.5Z"/><path fill="#bc3a3a" stroke="#bc3a3a" d="M715.2 874c-.1-.2-1.2-.7-1.2-1.4q1-11.1-5.9-19.7c-11.5-14.5-31.5-18.6-47.4-8.9L636 859c-10.3 6.4-22 9.4-34.3 8.8l-20.2-3.5c-13.6-2.3-16.4-11.7-31.1-17.6-4.3-1.8-6.3-4.5-8.5-8.2-6.7-10.7-11.9-21.5-14-34-1.6-9.5-9.7-16-18.7-16.8v-29.4c.1-31.3.7-61.7 3.4-93l6.3-72.7c1.3-15.9 1.8-31 4-46.7 2-14.7 2-28.8 1.4-43.6l2.8-36 6.4-74.6c1.4-16 2.2-31 1.2-47-1.2-18 .5-35.3 2.7-53.2.7-5.8 3.2-11.6 10.1-12.3l29.3-2.7c21-2 41.5-1.7 62.1 2.4 17.6 3.5 33.5 11 48.2 21 16.2 10.8 31.1 22.3 45.5 35.5 33 30 61 81.6 77.7 123.1 7.4 18.5 14.1 36.1 19.3 55.4 9.4 35.1 14.2 70.7 10.6 107.2-3 30.3-8 59.3-14.2 89-3.5 16.7-10.6 31.4-17.7 46.8q-23.4 50.5-63 89.7Zm61.3-379.6c9-5 12.1-15.3 9.7-25.5-8.1-34.5-22.6-66.7-43.9-95.1-7.8-10.4-16.7-18.7-27-26.6q-32.5-24.7-69.6-41.6c-4.8-2.2-9.2-3.2-14.5-3.5-11.1-.6-21.1 8-20.7 20 .4 15.3 11.4 27.7 24 36l47.8 31.3c14.5 10.8 25.4 23.9 32.6 40.4l16.1 37.1c8.6 19.9 30.4 36 45.5 27.5m-93.6 56.2c19.9-9 30.4-29.4 27-50.6-2.3-15-9-28.7-18.6-40.3-8.9-10.7-20.9-16.6-34.2-20.1-12.8-3.5-25.6-1.2-35.3 8.2-11.8 11.3-18.7 26.8-19.2 43.4-1.1 33 15 68.7 50.8 66.6q15.1-.7 29.5-7.2m-24.4 197.8c27.2-1.5 49.7-19 59-43.8 10.6-28.7-4-58.9-30.3-72-11.4-5.8-23.4-5.2-35.5-2.1-28.8 7.3-47.5 34.5-42.3 64.3q3.4 19.2 13.9 35.6c7.5 12 20.3 18.9 35.2 18m96 13.9 29.7-42.5c2.4-3.4 1-7.9-2.1-10.3-2.4-1.7-7.3-2.2-9.7 1.2l-30.7 43.7c-2.7 3.7-1.2 8.9 2 10.8 3.8 2.3 8 1.1 10.9-2.9m5.4 36.4 29.6-43.1c2.2-3.3 0-7.7-2.8-9.5-2.6-1.7-7.5-1.8-9.8 1.5L748 790c-2.4 3.4-.2 8.5 2.4 9.9 2.7 1.4 7.5 1.9 9.6-1.2"/><path fill="#8a2020" stroke="#8a2020" d="M715.2 874l-17.6 14.4c-11.3 9.3-23 16.8-36.8 22.1l-54.5 21c-21.1 8.2-42.6 14-65.3 12.8l-18.4-.9c-7.4-.3-13.5-5-13.6-13l-.8-48.7v-33l1-61c9.1.7 17.2 7.3 18.8 16.8 2.1 12.5 7.3 23.3 14 34 2.2 3.7 4.2 6.4 8.5 8.2 14.7 6 17.5 15.3 31.1 17.6l20.2 3.5c12.3.6 24-2.4 34.3-8.8l24.6-15c15.9-9.7 35.9-5.6 47.4 9q6.9 8.5 6 19.6c-.1.7 1 1.2 1 1.3"/></svg>