<svg xmlns="http://www.w3.org/2000/svg" width="1024" height="1024" viewBox="0 0 1024 1024" stroke-linejoin="round" stroke-width="1.5"><path fill="#f59a2e" stroke="#f59a2e" d="M496.8 396.6l-7.5-2.8c-9-3.5-21.5-5.9-30.8-5.5-20.1.8-39.4 3.8-58.9 9.4-28.5 8.2-68.1 23.6-89.8 43.2-18.3 16.5-43.9 43.5-53.6 64.8l-30.6-12c-7.2-2.8-14.2-5.5-20.5-9.9-5-3.4-9.3-7.3-14.5-9.8q18-28.7 40.7-54c7-7.8 14.5-13.8 23.3-19.3 16.2-10 32.2-19.1 49.4-27.5 21-10.2 42.8-16.4 65.8-19.8 1.7-.2 1.7-2.8 1.4-3.8-.4-1.5-1.5-1.9-3.1-2.4-23.4-7.9-50.7-4-74.1 4-27.2 9.4-63.2 28-81.4 50l-20.3 24.6c-7.5 9-19.7 28-22.1 38.8-5.7-1.5-12-3.1-18.4-3.4-15.3-.8-30.5 3.2-44.8 7.8-1.8-.9-4.8-.9-6.3-2.1-1-.9-5.1-8.3-3.4-12.2 2-4.5 1-8 .4-12.7-.4-2.5 2-6-.2-8.5l13.7-12.6 28.2-24.3q12.1-10.4 26.3-17.8c15.6-7.9 31-14.5 47.6-20.1 21.8-7.4 42.9-14.5 65.2-20.3 16.3-4.2 33-3.6 49.6-1.9 19.5 2 38 5 57.1 8.7 15.1 2.8 29 7.4 42.6 14.3 11.5 5.9 22.6 11.2 34.7 16 13 5.2 24.3 11.8 34.3 21m-330 39 7.4-11.7q4.5-6.5 9.4-12.5c1.8-2.2.6-5.9-1.6-7-1.5-.9-4.5-1.2-6.2.9l-18.5 22c-2.1 2.7-2.6 7.3-.3 9.8 2.7 3.1 7.7 2 9.9-1.4m-40.4 8.5c3.2 3.4 8 1 9.8-2.3 3.4-6.4 6.4-13 11.4-18.2 2.2-2.3 3.5-5.1 1.2-7.8-1.5-1.8-5.8-2-7.7.5l-13.8 17.4c-2.2 2.8-3.7 7.5-.9 10.4"/><path fill="#c96a12" stroke="#c96a12" d="M170.2 464.6c7.2 1.9 13.8 6.1 20.4 9.4 5.2 2.5 9.5 6.4 14.5 9.8 6.3 4.4 13.3 7.1 20.5 10l30.6 11.9c-.4.8-.2 2-1.3 3.2-2.8 3.3-1.7 9.9 2.8 11.1 4.8 1.3 8.2 3.4 12.3 5.7 3 1.6 7.2-1.8 8.8-3.8l2.4-3 18 10.7 36 19c13 6.8 25.9 12.5 39.7 16.5l-2.9 6.7c-.9 2 0 4.4 1.3 6 .9 1 2.8 1.4 4.7 1.6 4.2.6 6.8 5.4 10.4 6.4 4.4 1.3 8.3-3.6 10.6-6.5l26 16.6 20 11.4 33 15.5c13.3 6.2 26.2 12.4 40 16.8l-1.1 3.3c-1.3 4-.9 10 3.5 11.8 4.3 1.6 7.2 4.8 11 6.8 4 2 9.2-1.8 11-5 12.7 8.5 24.4 18.2 33.9 30.5l21.3 32.2c10.8 16.4 23.5 28.7 44 29.5 3.6.2 5.8 2 8.6 3.5 2.3 1.2 5.6.7 7.7 2.8-2.2 2-4.5 4.4-7.7 5.9l-13.9 6.5c-11 3.8-25.3 2.1-34-6.3-13.7-13.1-18.4-37-47.7-49.8q-17.3-7.8-29.4-22.3c-9.2-10.8-20.9-18.3-34.2-23.4L450 650l-28.4-8c-10.5-3-19.4-7.7-27-15.6-8.1-8.6-17.8-14.5-28-20.3l-19.5-11c-10-6.6-19.9-12-31.3-16.1q-21.9-7.7-41.2-20.7c-35-23.8-58.6-15.7-76.9-23.9-18.2-8.1-35.1-40.7-76.8-24.2l-4.9.2c-4.2.1-6 5.2-9.6 6.6-5.7 2.3-13.6 3.2-20 1.2-4.2-1.3-10.4-6.8-11.9-11-4-11.5-2.2-23.5-1.5-35.3q.5-11.4 7.4-20 8-10 17.1-18.4c2.3 2.5-.2 6 .2 8.5.6 4.7 1.6 8.2-.4 12.7-1.7 3.9 2.4 11.3 3.4 12.2 1.5 1.2 4.5 1.2 6.3 2 14.3-4.5 29.5-8.5 44.8-7.7 6.5.3 12.7 1.9 18.4 3.4"/><path fill="#f59a2e" stroke="#f59a2e" d="M643.6 549.7c-4-1.3-7.7-6.5-13.4-7.8-3.2-.8-7.3-1.8-10.6-1.4-18.5 2.1-39.4 16.9-53 30-17.2 16.6-31 35.6-42.6 56.4l-6 12.7c-13.8-4.4-26.7-10.6-40-16.8l-33-15.5-20-11.4-26-16.6c27.5-34 59.9-66.6 100-85.6 20.7-9.8 50.1-17.2 72.3-13.4 2.4.4 5-.9 6-2.2 2.4-2.8.4-5.9.2-9.8l3.2 3.4c9.5 13.2 20.3 24.5 32.3 35.5q20 18.3 30.6 42.5m-162.5 38c6-10.3 12.6-20.3 20.9-28.3 2.8-2.8 5.7-5 3-9.4-1.3-2.2-6.4-4-9.3-1-10 10.4-19.8 21.4-27.7 33.5-2.5 3.8.2 9.2 3.4 10.4 4.3 1.7 7.3-1 9.7-5.1m23.5 14.2 14.5-19.8c2.6-3.6 7.2-6.8 3-11.6-2-2.4-6.8-1.9-9 .7L492 595.8c-3 3.4-2.9 9.4 1.1 11.5 5 2.6 8.6-1.3 11.5-5.3"/><path fill="#f59a2e" stroke="#f59a2e" d="M572 461.6c-10.8-5-22-8-34.8-7-37.3 3-73.6 16-103.2 39.2-19 14.9-50.4 50.8-59.1 71.3-13.8-4-26.7-9.7-39.7-16.5l-36-19-18-10.7c24.1-30 43.3-55 80.3-73.1 22-10.7 44.2-19.2 67.8-26.2q35-10.1 71.3-8.3c3 .1 2.8-4.8 3.7-9.2l15.8 12.5c19.6 13.4 37.2 28.8 52 47M657.9 755c-2-2.1-5.4-1.6-7.7-2.8-2.8-1.6-5-3.3-8.5-3.5-20.6-.8-33.3-13.1-44.2-29.5L576.3 687c-9.5-12.3-21.2-22-33.8-30.5 16.7-28.4 40.8-60.9 69.5-77.8q10.2-6 22-6.3c3.4 2.7 7.1 2.2 10.1-.2 5.6-4.5 1-10.7 3.8-12.5l2 3.8c3.4 12 7.9 23 13.3 34.1 6.9 14.2 11 28.7 12.5 44.4l5.5 30.8c1.7 10 2.1 20.8-.6 30.5-1.1 4.2-3.4 6.9-2.9 11.8.4 3.3-1.6 7.3-2.4 10.7-3 11.5-9 21.6-17.4 29.2m16.2-58.3c3.6-13.3 1.7-26.6-2.8-39.5L661 627c-2.1-6.3-4.5-12.3-9.2-10.6-1.6.6-3.1 2.4-2.9 4.5q2 13.4 0 26.8-2.6 15.6 2 30.8 6.6 21.6.8 43.3c-.7 2.6 1.2 5 3.3 5.6 7.1 2.2 16.3-20.4 19-30.7"/><path fill="#ffcb80" stroke="#ffcb80" d="M496.8 396.6c2.9 1 5.3 3.7 7.5 5.5-.9 4.4-.6 9.3-3.7 9.2q-36.2-1.9-71.3 8.3c-23.6 7-45.9 15.5-67.8 26.2-37 18-56.2 43.1-80.3 73.1l-2.4 3c-1.6 2-5.9 5.4-8.8 3.8-4-2.3-7.5-4.4-12.3-5.7-4.5-1.2-5.6-7.8-2.8-11.1 1-1.2.9-2.4 1.3-3.2 9.7-21.3 35.3-48.3 53.6-64.8 21.7-19.6 61.3-35 89.8-43.2 19.5-5.6 38.8-8.6 59-9.4 9.2-.4 21.7 2 30.7 5.5Zm75.3 65 5.4 6.7c.2 3.9 2.2 7-.2 9.8-1 1.3-3.6 2.6-6 2.2-22.2-3.8-51.6 3.6-72.3 13.4-40.1 19-72.5 51.7-100 85.6-2.3 2.9-6.2 7.8-10.6 6.5-3.6-1-6.2-5.8-10.4-6.4-1.9-.2-3.8-.6-4.7-1.6-1.3-1.6-2.2-4-1.3-6l2.9-6.7c8.7-20.5 40.1-56.4 59.1-71.3 29.6-23.2 66-36.1 103.2-39.2 12.8-1 24 2 34.9 7m71.5 88c1.4 3.2 3.8 6.9 4.3 10.1-2.7 1.8 1.8 8-3.8 12.5-3 2.4-6.7 2.9-10.1.2q-11.8.3-22 6.3c-28.7 17-52.8 49.4-69.5 77.8-2 3.2-7 7-11.1 5-3.8-2-6.7-5.2-11-6.8-4.4-1.7-4.8-7.8-3.5-11.8l1-3.3 6-12.7c11.7-20.8 25.5-39.8 42.7-56.4 13.6-13.1 34.5-27.9 53-30 3.3-.4 7.4.6 10.6 1.4 5.7 1.3 9.4 6.5 13.4 7.8m-453-75.7c-6.6-3.3-13.2-7.5-20.4-9.4 2.4-10.8 14.6-29.7 22.1-38.8l20.3-24.6c18.2-22 54.2-40.6 81.4-50 23.4-8 50.7-11.9 74-4 1.7.6 2.8 1 3.2 2.4.3 1 .3 3.6-1.4 3.8-23 3.4-44.8 9.6-65.8 19.8-17.2 8.4-33.2 17.4-49.4 27.5-8.8 5.5-16.3 11.5-23.3 19.3q-22.6 25.3-40.7 54"/><path fill="#000" stroke="#000" d="M166.9 435.6c-2.2 3.4-7.2 4.5-10 1.4-2.2-2.5-1.7-7.1.4-9.8l18.5-22c1.7-2 4.7-1.8 6.2-1 2.2 1.2 3.4 4.9 1.6 7.1q-5 6-9.4 12.5Zm-40.4 8.5c-2.7-2.9-1.3-7.6.9-10.4l13.8-17.4c1.9-2.5 6.2-2.3 7.7-.5 2.3 2.7 1 5.5-1.2 7.8-5 5.3-8 11.8-11.4 18.2-1.9 3.4-6.6 5.7-9.8 2.3m354.6 143.7c-2.4 4.1-5.4 6.8-9.7 5.1-3.2-1.2-6-6.6-3.4-10.4 7.9-12 17.6-23.1 27.7-33.5 3-3 8-1.2 9.4 1 2.6 4.4-.3 6.6-3.1 9.4-8.3 8-15 18-21 28.4m23.6 14.2c-3 4-6.5 8-11.5 5.3-4-2-4-8.1-1.1-11.5l21.2-24.5c2.1-2.6 7-3 9-.7 4.1 4.8-.5 8-3.1 11.6Z"/><path fill="#ffcb80" stroke="#ffcb80" d="M674 696.7c-2.7 10.3-11.9 33-19 30.7-2.1-.6-4-3-3.3-5.6q5.8-21.7-.8-43.3-4.6-15.2-2-30.8 2-13.4 0-26.8c-.2-2 1.3-4 2.9-4.5 4.7-1.7 7 4.3 9.2 10.6l10.3 30.2c4.5 13 6.4 26.2 2.8 39.5"/><path fill="#fff" stroke="#fff" d="M533 780.6l-4.1-5.4c-5.7-4.3-13-4.7-19.6-2.8l-32 .7c-10.4.2-20.5-2.6-28-10-1-6-3.5-11.4-8.2-15.2 2-7.5 4.7-14.6 9.2-21.4 1.8-2.9-.5-7.4-2.8-8.3-3-1.4-6.4-.2-8.2 2.9l-9.6 16.1q-.7-1.7-2.5-2.7l-23.5-11.2c-5.4-1.8-10.9-2-16 .5s-7.7 7.4-7 13.5l-18.4-6.5q-3.9-1.4-4.8-5.3c-6.5-19.2-30.8-31-50-34.7l-22.6-3c-8.1-1-16.6-1.8-23.6-6l-20.9-15.6c-6.6-5-13.1-9-21.2-11-4.3-1-7.2-4-9.5-7.3-6.5-9.3-16.9-13.8-28-14.4-10.2-.5-11-6.5-16-6.4 0-2.2.3-4.8-1-6.6-1-1.2-3.5-2.6-5.6-1.8l-5.3-19.3-10.3-32c-2.6-8-3-15.3-1-23.5 1.6-6.9-2.2-13.3-8.7-15q-1.2-.3-1.2-1.6c17.5-4.8 29.3 4.2 42.5 16.2q14 12.5 32.8 14.7l26.4 3.3c11.4 2.5 21.4 8 31.2 14.4 14 9.2 28.2 16.6 44 22q10.9 3.7 20.6 10c10.4 6.7 20.6 12.7 31.6 18.4q11.2 5.9 19.6 15.1c20.6 22.2 40.3 19 66 29l36 13.8c10.5 4 19.6 9.6 27 18.1q14 16.3 33.6 25.6c10 4.7 18.5 10.4 24.3 20.2l-14 15.9Zm-73.2-26.7c2 2 4.9 2 6.9 1 1.5-.6 3.3-2.6 4.3-4.7l10-21c1.5-3-.5-6.9-3-7.7-2.3-1-6.1-.2-7.8 2.7L459.4 742c-2 3.5-2.6 8.7.4 11.8"/><path fill="#e6e6e6" stroke="#e6e6e6" d="M132.6 527.3q0 1.2 1.2 1.6c6.5 1.7 10.3 8.1 8.7 15-2 8.2-1.6 15.5 1 23.6l10.3 31.9 5.3 19.3c-3.3 1.2-3.8 4.8-4.1 7.9l-2.4 20.6c-.4 4.2.2 8.5 2.5 12 1.8 2.9 4.8 4.2 8 3 2.4-1 4.6-4 3.8-7.3-1.3-5.7-1.6-11.1-1.5-17l.3-10.8c5-.1 5.8 5.9 16 6.4 11.1.6 21.5 5.1 28 14.4 2.3 3.3 5.2 6.3 9.5 7.4 8 2 14.6 6 21.2 11l20.9 15.5c7 4.2 15.5 5 23.6 6l22.6 3c19.2 3.7 43.5 15.5 50 34.7q.9 4 4.8 5.3l18.5 6.5c-.8-6.1 2-11 7-13.5s10.5-2.3 15.9-.5l23.5 11.2q1.9.9 2.5 2.7c-2.8 4.6-3.4 13 2.4 15 2.8 1 8-.6 9-4.3 4.7 3.8 7.2 9.2 8.2 15.2 7.5 7.4 17.6 10.2 28 10l32-.7c6.7-2 14-1.5 19.6 2.8l4.1 5.4-20.5 14.6q-13.7 8.1-30 8.3-17.9.1-35 5.3c-13.5 4.2-36 .6-50.6-3.3-14.3-3.8-16.3-11-22.4-11.5l-33.7-2.7q-25.2-2-48.2-12c-13-5.6-20.8-14.1-31-18.2L221.2 745c-10.6-4.2-20.2-9.9-26.4-19.4-2.6-3.9-4.8-8.5-9.6-9.8l-20-5.6q-13.5-5.1-23.5-15.5l-9.5-22.2-19.7-28.1c-2.9-4-3-9-1.5-13.7l4-12.6c2.4-7.1 0-13.7-4-19.7-7.6-11-9.9-14.9-4-26.8 2.8-6 4.5-11.7 4.5-18.4q0-9 6.3-15.6l1.3-4.5q6.6-3.6 13.6-5.8m56.7 129.2-.3-14.2c0-3-2.8-5-5.3-5-2 0-4.8 1.7-5.1 4.3l-1.8 12.6c-1 6-1.2 12.6 1.8 17.9 1.7 2.9 5.3 4 8.2 2.9 6.2-2.5 2.6-9.4 2.5-18.5m28.1 28-5.2-24c-.8-3.5-4.9-5-7.7-3.8-3.4 1.4-3 4.8-2.7 8.3.6 7.5-.4 15 2.6 22 1.6 3.4 4.3 5.6 8 5 2.7-.5 5.8-3.9 5-7.5"/><path fill="#000" stroke="#000" d="M165.7 627l-.3 10.8q-.3 8.8 1.5 17c.8 3.4-1.4 6.5-3.8 7.4-3.2 1.2-6.2-.1-8-3-2.3-3.5-3-7.8-2.5-12l2.4-20.6c.3-3.1.8-6.7 4-7.9 2.2-.8 4.7.6 5.7 1.8 1.3 1.8 1 4.4 1 6.6M441 747.9c-1 3.7-6.2 5.3-9 4.3-5.8-2-5.2-10.4-2.4-15l9.6-16.1c1.8-3.1 5.1-4.3 8.2-3 2.3 1 4.6 5.5 2.8 8.4-4.5 6.8-7.2 13.9-9.2 21.4m18.7 6c-3-3.1-2.5-8.3-.4-11.8l10.8-18c1.7-2.8 5.5-3.5 7.9-2.6s4.4 4.8 3 7.8l-10 21c-1.1 2-3 4-4.4 4.6-2 1-5 1-7-1m-270.4-97.4c.1 9 3.7 16-2.6 18.5-2.8 1.1-6.4 0-8.1-3-3-5.2-2.7-11.7-1.8-17.8l1.8-12.6c.3-2.6 3-4.3 5-4.3 2.6 0 5.4 2 5.4 5Zm28.1 28c.8 3.6-2.3 7-5 7.5-3.7.6-6.4-1.6-8-5-3-7-2-14.5-2.6-22-.2-3.5-.7-6.9 2.7-8.3 2.8-1.2 7 .3 7.7 3.9Z"/><path fill="#000" stroke="#000" d="M248.8 781.8l-40-16q-21.9-8.6-34.6-28.4c-17.7-3.3-33.5-10.6-46.6-22.7-5.3-5-8.4-11.1-11-17.8-2.2-7.2-6-13.2-10.2-19.4l-14.8-21.7c-6-8.8-7.3-19-4.4-29.4l3.9-14c-1.1-4.2-4.8-8-6.9-11.8-5.2-9.3-6.5-19.2-2.9-29.2l5.4-15 1.4-13c-10.4-.8-18.9-6-26-13q-12.8-12.6-13.7-30.6-1.2-18.5 1.6-36.8c1.9-12.5 7.8-22.8 16.4-31.8 6.3-6.6 12.3-12.9 19.2-19l35.1-30.9c10.3-9 20.6-16.7 32.8-23.1C174 347.4 194.9 339 217 332l45.2-14.2c19.2-6 38.1-8 58.3-6.2 24.2 2 47.4 5.8 71.2 10.3q22.6 4.2 43.1 14.4c13 6.5 25.5 12.5 39 17.9 13.1 5.1 24.4 12.4 35.6 21l27 21-1-60.7c0-5.9 2-10.9 2.7-16.3 3.1-24.3 8-41.1 30.3-52.9 5.6-3 15.6-22.8 46.1-35.1l33.3-13.4c13.3-5.4 25.6-11.1 39.8-14.2 13.4-3 26.4-5.9 40-6.5 9.4-.4 17.6-2.7 26.6-4.9 18.4-4.4 38-3.2 55.7 2.7l24.8 10.2c16 5.3 31.2 10.8 46.6 17.6 12.3 5.5 22 13.3 31.7 22.6l24 23.3 16 15.4c4.8 4.5 6.4 10.4 7.8 16.8l6.5 29.2c6.1 16.7 9.5 33.2 8.5 51.2l-4.8 49.1c-3.4 34.4-6.2 77.7-1.2 111l1.1 25.5c-.6 29.6-3 58.4-6 87.8-1 11-5 20-12.5 28.2q-9.2 10.4-21.9 17l-32 16.2c-12 6.2-24.7 9.5-37.8 13l-27.5 7.3c-13.7 3.6-27 6.8-41.2 7l-42.8.6q-18.7.4-36.3-6.2l-17-6.3c-7.2 29.2-29.6 51.8-58.2 59.1-11.9 3.1-23.8 1.4-35.2-2.7-9-3.2-15.7-9.5-21.6-17-4.3 5.3-8 9.4-12.8 13l-35.6 27c-15.5 11.8-33.2 17-52.7 17q-13.2.1-25.6 3.8c-21.2 6-48.1 1.7-69.4-4.7l-17-8.3-30.8-3.2c-28-3-55-10.7-77.4-27.7-3.3-2.5-6.6-4.3-10.8-5.9m333.2-494c-6.7 1.1-12.8 5-15.5 12.4-2.3 6-4.2 13.1-4 19.7.3 8.6 5.6 15.2 9.7 22.2 15.5 26.8 35 26.8 51.3 40.2 9 7.6 19.6 12.1 30.3 16.7 11.9 8.9 26.1 13.2 41.2 12.5 13.6-.6 26.4.3 39.8 2.7l28.8 5.1c16.6 3 32.6-.8 48.7-5.4l14-2.8c8.5-1.7 16-4.3 23.8-7.8 19.4-8.6 36-5.1 54.3-17.7 15-10.4 25.7-19 32.6-37 1.9-4.6 5.1-9.8 5.7-14.9l-6.4-30.3c-.4-1.8-1.4-4.7-2.7-5.9L904.3 271c-3.8-3.5-6.5-6.9-9.6-11-9.9-12.6-42.5-24-60-29.4l-12.3-2.2c-4-.8-7.3-3.5-8.6-7.5-16.4-8.6-43.4-11.3-59.8-5.3-14.7 5.4-29.8 3-44.5 8.1-12.4 4.4-24.7 7-37.7 8.8l-45.3 19.2c-13.2 5.6-25.6 12.4-34.2 24.2-3.1 4.2-5.6 8.4-10.3 12M97.6 433.4Q88.5 442 80.4 452q-6.8 8.5-7.4 19.9c-.7 11.8-2.6 23.8 1.5 35.4 1.5 4.1 7.7 9.6 12 11 6.3 1.9 14.2 1 19.9-1.3 3.5-1.4 5.4-6.5 9.6-6.6l4.9-.2c41.7-16.5 58.6 16.1 76.8 24.2 18.3 8.2 41.8.1 77 24 13 8.7 26.4 15.4 41.1 20.6 11.4 4 21.4 9.5 31.3 16l19.5 11.1c10.2 5.8 19.9 11.7 28 20.3 7.6 7.9 16.5 12.5 27 15.5L450 650l41 15.6c13.3 5 25 12.6 34.2 23.4q12.1 14.5 29.4 22.3c29.3 12.9 34 36.7 47.7 49.8 8.7 8.4 23 10 34 6.3l14-6.5c3.1-1.5 5.4-4 7.6-6 8.5-7.5 14.5-17.6 17.4-29.1.8-3.4 2.8-7.4 2.4-10.7-.5-5 1.8-7.6 3-11.8 2.6-9.7 2.2-20.5.5-30.5l-5.5-30.8c-1.5-15.7-5.6-30.2-12.5-44.4-5.4-11.1-10-22-13.3-34l-2-3.9c-.5-3.2-2.9-6.9-4.3-10Q633 525.5 613 507.2c-12-11-22.7-22.3-32.3-35.5l-3.2-3.4-5.4-6.7c-14.8-18.2-32.4-33.6-52-47l-15.8-12.5c-2.2-1.8-4.6-4.4-7.5-5.5-10-9.3-21.4-16-34.3-21-12-5-23.2-10.2-34.7-16.1-13.7-7-27.5-11.5-42.6-14.3-19.1-3.6-37.6-6.7-57.1-8.7-16.7-1.7-33.3-2.3-49.6 1.9-22.3 5.8-43.4 12.9-65.2 20.3-16.6 5.6-32 12.2-47.6 20.1-9.6 5-18.1 10.8-26.3 17.8L111.2 421ZM737 718.3l19.8 1.6H788c15.4-.1 30-3.8 44.6-8.7l22.2-6c11-2.9 21.7-5.3 31.9-10.4l29.8-15q13.7-6.8 22.4-19.4l3.1-23.2 4.5-80.6-2.7-25.3-.7-35.8c-.5-23.5 1.1-46 3.7-69.4l4.3-39.9c.8-7.2 1.3-14-.5-21.8-12.1 22.1-39.3 43.4-63.4 48.8-16.1 3.6-32.3 5.8-47.9 11.5-10.6 4-20.4 7.7-31.7 9.8-13.2 2.3-26 4.7-39.6 3.8l-32.2-4.9c-11.8-1.7-23-3.6-34.9-2.9-12.4.8-24.5.4-36.1-3.8l-21.2-11.1-25.2-13.8c-8-6.5-16.4-11.3-25.6-15.9-13.1-6.5-23.6-15.3-32.2-28-.4 17.4-.5 34.5 1.4 52 .5 4.2.7 7.8-1 11.6l11.5 11.8 24 27.7c8.9 12 18.5 22.2 29.6 32.3 22.9 20.7 34.3 44 44 72.8l10.2 24.5c6 14.2 11 28 12.6 43.4l5.4 30.1c2.3 13.4 3.6 26.6 1.1 40 2.1 3 5.3 4 8.7 5.5 9.4 3.7 18.7 7.8 28.9 8.7m-604.4-191c-4.8 1.4-9 3.4-13.6 5.8l-1.3 4.5q-6.2 6.4-6.3 15.6c0 6.7-1.7 12.4-4.6 18.4-5.8 12-3.5 15.7 4 26.8 4.1 6 6.5 12.6 4.1 19.7l-4 12.6c-1.6 4.7-1.4 9.6 1.5 13.7l19.7 28 9.5 22.3q10 10.4 23.5 15.5l20 5.6c4.8 1.3 7 6 9.6 9.8 6.2 9.5 15.8 15.2 26.4 19.4l40.6 16.1c10.1 4 18 12.6 30.9 18.2q23 10 48.2 12l33.7 2.7c6.1.5 8.1 7.7 22.4 11.5 14.6 3.9 37.1 7.5 50.5 3.3 11.6-3.6 23-5.1 35.1-5.3q16.3-.2 30-8.3l20.5-14.6 21.2-16.6 14-16c-5.8-9.7-14.4-15.4-24.3-20.1-13.1-6.3-24.2-14.5-33.7-25.6-7.3-8.5-16.4-14-26.8-18l-36-14c-25.8-10-45.5-6.7-66-28.9q-8.6-9.3-19.7-15.1c-11-5.7-21.2-11.7-31.6-18.4q-9.7-6.3-20.6-10c-15.8-5.4-30-12.8-44-22-9.8-6.4-19.8-11.9-31.2-14.4l-26.4-3.3Q189 556 175 543.5c-13.2-12-25-21-42.5-16.2"/><path fill="#fff" stroke="#fff" d="M653.8 399c-3.3-5.9-5.2-12-7.1-19l-5.2-8.9c-1.3-2.3-3.8-3.3-4.7-4.5q-1-2.7-2.6-5.1c-1.8-2.9-4-5.3-7.8-6.8l-19.8-8c-6.9-2.8-11.4-7.4-15-13.8-5-8.8-9.3-18.3-8.1-28.7.3-3.1 2.4-6 1.2-9.4l-2.7-7c4.7-3.5 7.2-7.7 10.3-12 8.6-11.7 21-18.5 34.2-24.1l45.3-19.2c13-1.7 25.3-4.4 37.7-8.8 14.7-5 29.8-2.7 44.5-8 16.4-6 43.4-3.4 59.8 5.2 1.3 4 4.5 6.7 8.6 7.5l12.2 2.2c17.6 5.3 50.2 16.8 60.1 29.5 3.1 4 5.8 7.4 9.6 11l29.3 26.4c1.3 1.2 2.3 4.1 2.7 5.9l6.4 30.3c-.6 5.1-3.8 10.3-5.7 15-6.9 18-17.6 26.5-32.6 36.9-18.3 12.6-35 9.1-54.3 17.7-7.8 3.5-15.3 6-23.7 7.8l-14.1 2.8c-16 4.6-32 8.4-48.7 5.4l-28.8-5.1c-13.4-2.4-26.2-3.3-39.8-2.7-15 .7-29.3-3.6-41.2-12.5m131.4-9.1c38.1.9 50.8-18.8 68.3-22.9 6.2-1.4 10.4-5.7 14.3-10.4q9.6-11.3 8.7-26.4c-.6-7.7-3.7-14.2-6.8-21.2-4.5-10-9-19.6-16.2-28-12.5-14.2-34.2-27.7-53.1-29.8-8.2-.9-15.8-2.7-23.6-5.2-15.7-4.9-47-2.4-63.3 3-3.7 1-6 2.3-9.7 3.1-14.8 3.4-28.7 10.7-39.8 21-8 7.4-14 16.7-18 26.9-5 12.9-1.6 27 6.6 38 6.7 8.9 15.6 15 25.3 20.4L693 367c7.5 4.3 14.6 8.6 23 10.8l36.2 9.7c10.8 2.9 21.4 2.1 33 2.4m-145-119c.8-3.4-1.7-6.8-4.3-7.5-3-1-7.3 1-7.6 4.5l-1.2 15.7c-.3 3.5 2.6 6.3 5.6 6.5 7.3.4 5.2-8 7.5-19.3m-22 13.3c-.1-3-3.5-4.9-5.8-4.6-1.9.2-5 1.6-5.5 4.3-2.5 13.1-3 32.2 7.7 30 9.3-1.9 3.8-13 3.5-29.7m271 2.3c-3.5-1.2-6.8 1.8-7.3 4.7-.4 2.5 1 5.8 4.1 6.7 5.2 1.6 9.4 4.2 13.7 7.4 2.7 2 6.7 1.3 8.4-1.2 5-7-9.1-14.4-19-17.6m15.3 35.7q-4.8-5.4-10.2-9.4c-3-2.2-7.4-.2-8.7 2.4-3.1 6.5 5.2 8 9.4 14.5 1.9 3.1 6 3.5 8.6 1.8 2.8-1.8 3.6-6.3 1-9.3m-244.8 56.4c3.4-6 12.1-7.7 8.2-14-1.3-2.1-5.4-3-7.7-1l-8.7 7c-3 2.5-4.5 7.5-1.9 10.2 3 3.1 8.1 1.4 10.1-2.2"/><path fill="#e6e6e6" stroke="#e6e6e6" d="M582 287.8l2.7 7c1.2 3.3-.9 6.3-1.2 9.4-1.2 10.4 3 19.9 8 28.7 3.7 6.4 8.2 11 15.1 13.8l19.8 8c3.7 1.5 6 4 7.8 6.8-1.8.2-3.2.3-4.3 1.5-.8.9-1.8 2.5-1.3 4 .7 2.2 2.7 2.7 4.9 2.4 1.2-.2 2.8-.7 3.3-2.8 1 1.2 3.4 2.2 4.7 4.5l5.2 9c1.9 6.8 3.8 13 7.1 18.9-10.7-4.5-21.2-9.1-30.3-16.7-16.4-13.4-35.8-13.4-51.3-40.2-4-7-9.4-13.6-9.7-22.2-.2-6.6 1.7-13.7 4-19.7 2.7-7.3 8.8-11.3 15.5-12.4"/><path fill="#000" stroke="#000" d="M785.2 389.9c-11.6-.3-22.2.5-33-2.4l-36.1-9.7c-8.5-2.2-15.6-6.5-23-10.8l-15.2-8.6c-9.7-5.5-18.6-11.5-25.3-20.4-8.2-11-11.6-25.1-6.5-38 4-10.2 9.9-19.5 17.9-27 11.1-10.2 25-17.5 39.8-20.9 3.8-.8 6-2 9.7-3.2 16.4-5.3 47.6-7.8 63.3-2.9q11.5 3.8 23.6 5.2c19 2.1 40.6 15.6 53.1 29.9 7.3 8.3 11.7 18 16.2 28 3 6.9 6.2 13.4 6.8 21.1q.9 15.1-8.7 26.4c-4 4.7-8.1 9-14.3 10.4-17.5 4.1-30.2 23.8-68.3 22.9m-110.7-103q-9 9.4-12.7 21.9c-1.5 5.3.5 10.7 3 15.3 2.6 5.1 6.9 8.6 11.1 12.1 3.6 3 7.7 4.7 11.6 7.1l13.5 8.1c7.4 4.5 14.8 8.5 23.3 10.6l31.3 7.6c14.7 3.6 29.9 3 44.8 1 9-1.3 16.8-4.9 24.3-9.7l24.3-12.4c3-1.5 6-3.2 7.7-6.4 3-5.4 3.4-11.5 1.3-17.2l-4-10.8c-1-2.6-2.4-4.1-3.7-6.4-6.6-12.7-16.8-22.6-29.1-29.9-7.9-4.6-15.7-8-24.8-9.2l-22.8-5q-15-3.6-30.3-1.7l-26.8 3.7c-12.8 1.7-32.5 11.3-42 21.3m-56.4-2.8c.3 16.6 5.8 27.8-3.5 29.7-10.7 2.2-10.2-16.9-7.7-30 .5-2.7 3.6-4.1 5.5-4.3 2.3-.3 5.7 1.7 5.7 4.6m271 2.3c9.8 3.2 24 10.6 19 17.6-1.8 2.5-5.8 3.2-8.5 1.2-4.3-3.2-8.5-5.8-13.7-7.4-3-1-4.5-4.2-4-6.7.4-2.9 3.7-5.9 7.1-4.7m-248.8-15.6c-2.3 11.2-.2 19.7-7.5 19.3-3-.2-5.9-3-5.6-6.5l1.2-15.7c.3-3.6 4.6-5.4 7.6-4.5 2.6.7 5 4 4.3 7.4m264.1 51.3c2.7 3 1.9 7.5-1 9.3-2.5 1.7-6.6 1.3-8.5-1.8-4.2-6.5-12.5-8-9.4-14.5 1.3-2.6 5.6-4.6 8.7-2.4q5.4 4 10.2 9.4m-244.7 56.4c-2 3.6-7 5.3-10 2.2-2.7-2.7-1.1-7.7 1.8-10.1l8.7-7.2c2.3-1.8 6.4-1 7.7 1.1 4 6.3-4.8 8-8.2 14m-25.4-17q1.5 2.4 2.6 5c-.5 2.2-2 2.7-3.3 2.9-2.2.3-4.2-.2-4.9-2.3-.5-1.6.5-3.2 1.3-4 1-1.3 2.5-1.4 4.3-1.6"/><path fill="#579a27" stroke="#579a27" d="M737 718.3c4-7.5-5-12.3-5-28l-.1-20q0-20-10-37.4c-4.4-7.6-7.7-15-9.5-23.5l-7-34.5c-6.3-30.5-12.7-60.1-17.5-90.8-2.6-16.9-8.8-24.1-22.8-32.2-2-5.6-.9-10.7.5-16.1.7-3-1-6.5-.8-9.1 11.6 4.2 23.7 4.6 36.1 3.8 11.9-.7 23.1 1.2 34.9 3l32.2 4.8c13.5 1 26.4-1.5 39.6-3.8 11.3-2 21-5.8 31.7-9.8 15.6-5.7 31.8-8 48-11.5 24-5.4 51.2-26.7 63.3-48.8 1.8 7.9 1.3 14.6.5 21.8l-4.3 40c-2.6 23.3-4.2 45.8-3.7 69.3l.7 35.8 2.7 25.3-4.5 80.6-3 23.2q-8.9 12.6-22.5 19.4l-29.8 15c-10.2 5.1-21 7.5-32 10.5l-22.1 6c-14.6 4.8-29.2 8.5-44.6 8.5l-31.2.1Zm189.3-111.8c-.2-17 .3-33 2.6-50 2.8-21 2-41.3-2.5-61.9-2-9-1.7-17.8-2.5-27l-1.2-14.2c-.5-6.3-5.1-11-10-12.9q-9.3-3.3-17 2.5c-5.7 4.2-8.1 12.2-6.4 19.3 2.7 10.5 4.2 20.5 4.8 31.6 1.3 27 1.3 53.2.1 80.4-1.2 27-5.2 52.7-10 79-.8 4.9.9 9.7 4.1 12 3.3 2.5 8.6 3.7 12.6 1.2 21.3-13.4 25.8-35.4 25.4-60m-148.6-8.3 8-15.2c3.1-5.8 6.4-10.8 10.1-16 2-2.8.4-7.6-2-8.9-2.5-1.3-6.6-1.1-8.4 1.7l-5.7 9.4-18.2 29.9c-2.4 4-.5 9 2.6 10.7 3.7 2 7.7.6 10.3-2.7 2-2.5 1.7-5.9 3.3-9m17.2 25.7 15.3-26.6 5.2-7.3c2-2.7.7-6.8-2-8.3-2.3-1.3-6.6-.7-8.4 2l-23.4 34.8c-2.5 3.7.2 9 3.3 10.2 4.5 1.7 7.7-.7 10-4.8"/><path fill="#7ccb45" stroke="#7ccb45" d="M926.3 606.5c.4 24.6-4 46.6-25.4 60-4 2.5-9.3 1.3-12.6-1.1s-4.9-7.2-4-12c4.7-26.4 8.7-52.1 10-79 1.1-27.3 1.1-53.5-.2-80.5-.6-11-2.1-21-4.8-31.6-1.7-7 .7-15 6.4-19.3q7.7-5.8 17-2.5c4.9 1.9 9.5 6.6 10 13l1.2 14c.8 9.3.5 18 2.5 27.1q6.7 30.7 2.5 62c-2.3 16.8-2.8 33-2.6 49.9"/><path fill="#000" stroke="#000" d="M777.7 598.2c-1.6 3-1.4 6.4-3.3 8.9-2.6 3.3-6.6 4.7-10.3 2.7-3.1-1.8-5-6.8-2.6-10.7l18.2-29.9 5.7-9.4c1.8-2.8 5.9-3 8.5-1.7 2.3 1.3 3.9 6 2 8.9-3.8 5.2-7 10.2-10.2 16Zm17.2 25.6c-2.3 4-5.5 6.5-10 4.8-3.1-1.3-5.8-6.5-3.3-10.2l23.4-34.8c1.8-2.7 6-3.3 8.5-2 2.6 1.5 3.9 5.6 2 8.3l-5.3 7.3Z"/><path fill="#579a27" stroke="#579a27" d="M664.8 426.7c-.3 2.6 1.5 6.2.8 9-1.4 5.5-2.5 10.6-.5 16.2 14 8 20.2 15.3 22.8 32.2 4.8 30.7 11.2 60.3 17.5 90.8l7 34.5c1.8 8.6 5.1 16 9.5 23.5q10 17.4 10 37.5v20c.1 15.6 9.2 20.4 5 27.9-10.1-.9-19.4-5-28.8-8.7-3.4-1.4-6.6-2.5-8.7-5.5 2.5-13.4 1.2-26.6-1.1-40l-5.4-30.1c-1.6-15.4-6.6-29.2-12.6-43.4L670.1 566c-9.7-28.8-21.1-52-44-72.8-11-10-20.7-20.3-29.7-32.3l-23.9-27.7-11.5-11.8c1.7-3.8 1.5-7.4 1-11.6-2-17.5-1.8-34.6-1.4-52 8.6 12.7 19 21.5 32.2 28 9.2 4.6 17.7 9.4 25.6 15.9l25.2 13.8Zm-48.9 11 2.3-14.2c.5-2.8-2.1-5.2-4-5.5s-4.8 1.1-5.4 3.4l-4.2 15c-1 3.9-1.4 8.5.1 12 1.3 3 4.7 4.2 7.2 3.4 5.8-1.9 3-7.5 4-14m22 35c2-3 1.6-6.4 1.3-9.6l-1.4-17.3c-.3-3.3-3.2-5.2-5.8-4.6-2.8.6-3.5 3-4 6l-2 15.1c-.8 6.4 2 13.1 6.7 13.3 1.9 0 4-.8 5.3-2.8"/><path fill="#000" stroke="#000" d="M638 472.9c-1.3 2-3.4 2.9-5.3 2.8-4.7-.2-7.5-6.9-6.6-13.3l2-15.2c.4-3 1.1-5.3 3.9-5.9 2.6-.6 5.5 1.3 5.8 4.6l1.4 17.3c.3 3.2.6 6.5-1.2 9.7m-22-35.1c-1 6.5 1.7 12.1-4 14-2.6.8-6-.4-7.3-3.4-1.5-3.5-1.2-8.1-.1-12l4.2-15c.6-2.3 3.6-3.6 5.3-3.4 2 .3 4.6 2.7 4.1 5.5Z"/><path fill="#f59a2e" stroke="#f59a2e" d="M850.3 307.7c-6-1.5-11.7-3.6-18-2.8-27.3 3.3-52.3 14.3-73.1 31.9-4.9 4.1-9 8.1-12.5 13.4-16.7-2.9-32.9-8-46-19.9 9.1-9 19.7-16 31.5-22.2 24-12.5 49.3-21.3 76.2-24.5 2.3-.2 3.7-.4 4.4-2.2.5-1.4.2-3.8-1.6-4.8-3.3-1.6-7.2-3.7-11.2-4-19.9-1.2-38.4 3.5-57 10-22.5 7.8-42.6 19.8-58 37.5-.8-1.6-2.9-2.2-4.2-3.7-5.8-6.2-6.7-15-5.4-23.4.4-2.2.4-4.3-1-6 9.6-10 29.3-19.7 42.1-21.4l26.8-3.7q15.4-1.9 30.3 1.6l22.8 5.1c9.1 1.1 17 4.6 24.8 9.2 12.3 7.3 22.5 17.2 29.1 29.9"/><path fill="#ffcb80" stroke="#ffcb80" d="M700.7 330.3c-1 1-2.3 1.5-3.6 3-2.9 3.5-7.5 5.5-9.6 10-4-2.4-8-4.1-11.6-7.1q0-4.2 2.6-8l6.5-8c15.4-17.8 35.5-29.8 58-37.6 18.6-6.5 37.1-11.2 57-10 4 .3 8 2.4 11.2 4 1.8 1 2 3.4 1.6 4.8-.7 1.8-2 2-4.4 2.2-27 3.2-52.2 12-76.2 24.5-11.8 6.1-22.4 13.2-31.5 22.2"/><path fill="#c96a12" stroke="#c96a12" d="M700.7 330.3c13.1 11.9 29.3 17 46 19.9 9 1.5 18 4.4 27.2 4q20.2 5 41-.6l19.4-5.2c6-1.6 12.9-3.7 14.7.1L824.7 361c-7.5 4.8-15.3 8.4-24.3 9.6-14.9 2-30.1 2.7-44.8-.9l-31.3-7.6c-8.5-2-15.9-6-23.3-10.6l-13.5-8c2-4.6 6.7-6.6 9.6-10 1.3-1.6 2.7-2.2 3.6-3"/><path fill="#ffcb80" stroke="#ffcb80" d="M850.3 307.7c1.3 2.3 2.7 3.8 3.6 6.4-.5 2.2-1.4 4.5-2.8 5.9-2.2 2.1-4.9 2-8 2-24.2.2-51.1 16.8-69.2 32.2-9.2.4-18.2-2.5-27.2-4 3.5-5.3 7.6-9.3 12.5-13.4 20.8-17.6 45.8-28.6 73-32 6.4-.7 12.1 1.4 18.1 2.9"/><path fill="#f59a2e" stroke="#f59a2e" d="M849 348.5c-1.8-3.8-8.7-1.7-14.7 0l-19.4 5q-20.8 5.7-41 .7c18-15.4 45-32 69.3-32.3 3 0 5.7.2 7.9-1.9 1.4-1.4 2.3-3.7 2.8-5.9l4 10.8c2.2 5.7 1.7 11.8-1.2 17.2-1.6 3.2-4.6 4.9-7.7 6.4"/><path fill="#c96a12" stroke="#c96a12" d="M685 320.1l-6.5 8.1q-2.6 3.8-2.6 8c-4.2-3.5-8.5-7-11.2-12.1-2.4-4.6-4.4-10-3-15.3 2.4-8.2 7-15.7 12.8-21.9 1.3 1.8 1.3 3.9 1 6.1-1.4 8.3-.5 17.2 5.3 23.4 1.3 1.5 3.4 2.1 4.2 3.7"/></svg>