<svg xmlns="http://www.w3.org/2000/svg" width="1024" height="1024" viewBox="0 0 1024 1024" stroke-linejoin="round" stroke-width="1.5"><path fill="#0a84c9" stroke="#0a84c9" d="M723 534.5c1.4.2 2 1.8 3 2.7q3.7 3.2 8.4 4.9l46.1 17.3c3.1 1.2 7.7-.7 8.2-3.8.6-4.2-2.8-7.6-6.4-9.6q-21.7-11.6-45-20c-4.5-1.5-9.3-1.3-12.8.7 0-2.2 0-4.2.9-6.7l69 25.7-13.8 101.7-71.2-23.5Z"/><path fill="#0b5fa5" stroke="#0b5fa5" d="M909.8 857.5l-74.5-22-75-24.4-45-14.8-47-16.8 21-20.3 59.4 19.9 21.3 7 99 34.3 62.2 21.4c-6.9 6.7-13.3 11.2-21.4 15.7"/><path fill="#0a84c9" stroke="#0a84c9" d="M915.1 708.4l36.9 12.9-8.5 83c-3.1 0-5.8-1.6-9.1-2.7L879 782.5l-10.3-3.2 8.3-78.9c1.7-.4 3.7-1.5 5.7-.9l23.7 7.4c2.9 1.3 5.8 2.1 8.7 1.5m-50.5-14-8.5 79.8-69.9-24c-1.9-.6-3.3-.8-5-1l9.9-79.7c1.5.4 4-.2 5.5.3l13.6 4.5 48.4 16.7Zm11.3-113c-1.2 0-2.2-1.4-3.6-1.9L835.7 566l-19.6-6.2c-3.5-1.1-8 .7-9.4 4.3-1.2 3.3-.4 8.2 2.3 10.5 8.3 6.8 17.4 11.6 26.8 16.8 12.2 6.7 24.3 12.2 37.5 16.7l-7 69.4-40.6-14-27.7-9.6c-.8-2.2-2-5.1-4.4-5.7l13.2-97.3 69 24.5c1 1.7.3 4.6 0 6m-97.4 83.8-9.8 78.6-63.4-21.7q-3.7-1.5-7-1.6l1.3-12.6c.3-.1 1.1-.7 1.2-1.3l5.2-35.8 2-24.9c0-.9-1-3.2.5-3.7 5.4-1.5 10.4.2 15.5 2l49.1 17.6c2.1.8 3.3 3 5.4 3.4m107.3-50.6 10.1 5.3 32.4 17.6 3.2 32.9c.6 6 1.5 11.8 5 16.7q2.4 3.5 6 3.7 3.3-.2 5.6-3.2c7-9 5-43.9 5-60.3-.1-6.8-1.8-12.9-8.1-16.3-15.3-8.2-30.7-15.8-47-22-3.4-1.1-6.4-2.2-9.5-2.2l.8-6.3 29.2 10.5 39.8 16.7-1.8 59.9-3.2 40.6-67-23.6-7.4-3.7Z"/><path fill="#58b8e8" stroke="#58b8e8" d="M885.7 614.5l2.7-27.8q4.5.2 9.5 2.3c16.3 6 31.7 13.7 47 22 6.3 3.3 8 9.4 8 16.2.1 16.4 2.1 51.2-5 60.3q-2.2 3-5.5 3.2-3.6-.2-6-3.7c-3.5-4.9-4.4-10.7-5-16.7l-3.2-33-32.4-17.5Z"/><path fill="#0b5fa5" stroke="#0b5fa5" d="M856 774.2l-3.2 26.7-74.9-25.7 3.3-26c1.7.2 3.1.4 5 1Zm87.5 30.2-4 25.6c-3.6 0-6.7-1.2-10.2-2.4l-63.5-22 3-26.3 10.2 3.2 55.4 19c3.3 1.2 6 2.7 9.1 2.9m-174.9-60.7-4 26.5-69-22.6 2.7-27.2q3.2.1 6.9 1.6Z"/><path fill="#58b8e8" stroke="#58b8e8" d="M875.9 581.4l-2.6 26.6c-13.2-4.5-25.3-10-37.5-16.7-9.4-5.2-18.5-10-26.8-16.8-2.7-2.3-3.5-7.2-2.3-10.5 1.4-3.6 5.9-5.4 9.4-4.3l19.6 6.2 36.6 13.6c1.4.5 2.4 1.9 3.6 1.9"/><path fill="#0b5fa5" stroke="#0b5fa5" d="M681.9 750l-18.4 17.3 11.4-96.8 16.4 4.4Z"/><path fill="#8a8a8a" stroke="#8a8a8a" d="M692.2 626.8l-4.5 32-20.1-5.7-13.2-4 7.6-32.4 17.3 6Z"/><path fill="#58b8e8" stroke="#58b8e8" d="M723 534.5l1.5-7.8c3.5-2 8.3-2.2 12.8-.6q23.3 8.3 45 20c3.6 1.9 7 5.3 6.4 9.5-.5 3.1-5.1 5-8.2 3.8l-46-17.3q-4.8-1.7-8.5-4.9c-1-1-1.6-2.5-3-2.7"/><path fill="#0b5fa5" stroke="#0b5fa5" d="M710.7 534.5l-8 52.7-15.3-5.8 8.1-49.4c1.1-2.1 4.2-3.3 6-4.3 5 .7 7.9 1.8 9.2 6.8"/><path fill="#bdbdbd" stroke="#bdbdbd" d="M692.2 626.8l-12.9-4.2-17.3-5.9 6-26.5 27.6 10.2Z"/><path fill="#58b8e8" stroke="#58b8e8" d="M778.4 665c-2.1-.2-3.3-2.5-5.4-3.3l-49-17.6c-5-1.8-10.1-3.5-15.5-2-1.5.5-.5 2.8-.6 3.7l-2 24.9-5 35.8c-.2.6-1 1.2-1.3 1.3l8-71.5 71.1 24.4c.6 1.5 0 3.3-.2 4.4m86.2 29.2-6-3.3-48.4-16.7-13.6-4.5c-1.6-.5-4 0-5.5-.3l.6-4.3 72.8 25.4c1.1.4 0 3 0 3.7m50.6 14.1c-2.9.6-5.8-.2-8.7-1.5l-23.7-7.4c-2-.6-4 .5-5.7 1 .2-1.8 0-3.7 1-5.1Z"/><path fill="#0a84c9" stroke="#0a84c9" d="M710.7 534.5c-1.3-5-4.2-6.1-9.2-6.8l11.3-6.4Z"/><path fill="#58b8e8" stroke="#58b8e8" d="M798 653.8l-4.4-1.8c-1.2-.4-.1-3 0-4 2.5.7 3.6 3.6 4.4 5.8"/><path fill="#000" stroke="#000" d="M538.2 789.7l-116.3-30.4c-8.8-2.3-14.2-6.5-17.3-15L374 661.1c-2.5-7-4.3-13.5-2.7-20.9l16.6-79.6-11.7-4.2-11 44.4c-2.8 11.8-24.7 32.5-35.9 41-5 4-12.3 5.5-18.5 3.7l-36.5-10.8c-32.7-9.6-63.9-21.7-96-33.4l-87-31.7c-11.1-4-21.3-7.6-31.8-12.7-7.1-3.4-11.6-10.2-11.5-18.5.1-11.6 2.4-22.6 4.9-34.3l27.5-130.5 8.7-41.2 7.5-33.6c1.6-7.5 6.2-12.9 12.9-16.6 8-4.6 15.7-9.2 24.1-13 8.5-4 16.9-4.3 26-1.6l38.6 11c11.8 3.4 22.6 7.4 34.1 11.7L335 328.7c21.4 8 41.9 16.6 61.8 27.6 7.2 4 11.4 11.2 10.6 19.3l-2.7 26.5-8.5 55.4 13.2 5c4-16 8-31.3 14-46.5 2.7-6.7 8.8-11.2 16-11.8 12-1 23.7-.3 36 1l48.5 8.3 8-23.9c-13.2-10.3-24.7-21.2-35.2-33.7-11.3-13.4-19.3-28-24.5-44.7-10.6-34.2-12.5-77.7-2.5-112 3.5-11.8 9.4-21.7 16.7-31.5 5.5-7.5 11.6-13.5 20.9-16.6q13.6-4.5 28.7-3.7c48 2.3 88.7 23.6 127.6 52.2 10-11.3 23.5-17 38.5-17.3 12.3-.2 23.1 4.6 30.6 14.5 17.9 18 15.2 48.7-4.1 65.7 12.1 15.2 22.7 30.7 31.6 47.9 10.4 19.8 25 52.7 16.8 72.7-3.2 7.8-8.8 14.2-15 19.8-16 14.5-35.6 23.5-56.8 27.8-14.6 3-28.6 3.5-43.5 3.5-21.3.1-41.8-2.6-62.1-9.3l-3.6 12.8 27.3 10.5c6.9 2.7 10.5 8.4 14.1 14.7 13.4 23.4 26.9 46.2 39 71.1 1.8-7 3.3-13.5 8.9-17.5q11.4-8.1 24-14c6.8-3.3 14.3-3.7 21.5-1l83.9 31.7 57 20.7 77.4 28.7 17 8c6.2 2.8 10 9.4 9.9 16.4l-1.6 63c-3.6 54.5-8.9 108-16 162-.7 5.4-1.7 10.7-5 14.8-8.2 10.5-18.5 18.9-29.8 25.8q-10.7 6.5-22.7 2.8l-118-35.6-61.5-20.9-62.5-21.8c-10.6-3.7-15.5-11.9-14.1-23.2l12-103.8-6.4-2-31.1 121.4c-2.2 8.4-9 13.3-17.4 13.3q-11.7-.1-23-2.9ZM703.8 269q-5.7.6-12.2-.2L679.3 285l-33.1 42.4c-2.3 3-7.3 2.8-10.4 1.8-12.4-3.8-21.2-12.8-27.7-23.3-4.2-6.7-2.9-11.9 2.3-17.4l35.2-37.4 11-12c-2.2-6-2-11.6-1.6-17.8l.6-2.1c.3-1-.9-1.4-1.7-2-35.2-26.7-76-49.1-121-50.3-9 0-17 1.2-24.5 5.8-4.7 7.3-6 16-4.7 24.7 3.2 33.3 18.4 60.9 39.6 86.2 13.2 15.8 27.1 30 43.6 42.6q38.4 29.5 84 45.6c24.4 8.6 61.3 15.7 84.7 6.3 2.3-1 3.8-2.3 3.9-4.9.3-12.8-6.7-33.3-12.6-45.7q-15.3-32.1-39-58.8c-1-1.2-3.1.2-4.1.3m-26.7-58.5c-7.5 8.3-9.5 19-4.2 29.1 5.6 11 18.6 17.1 30.8 14.3q8.9-2 14.3-9c5.7-7.2 8.7-17.2 5.2-26.4-2.3-6.2-7.3-13-13.4-15.9-11.4-5.4-24.8-.8-32.7 7.9m-72.7 195.2q22.3 7.4 45.8 8.4c27.4 1.3 61-.5 84.4-16-48.2.7-93.7-18.4-133.2-43q-42.9-26.7-74-66.4c-19.4-24.6-33.6-51.2-38.8-83.3-5 13.3-6 26.2-6.5 39.8q-1 30.4 8.6 59c5 14.7 12 27.6 22 39.6 24 29.2 56 50 91.7 62M628 308c3.3 3 6.7 6 11.4 7.6l39.5-50.5-9.1-6-7.1-7.6-42.3 45.9q2.7 6.1 7.6 10.6m-482-17.4-.9 3.7-4.9 23.4-14.3 70.6 55.9 17.8 20.7 6.8 19.6-104-61-20.3c-4.5-1.5-8.5-3.2-13.5-3.3-1.4 1.3-1.1 3.5-1.6 5.3m-23 5.6c-2.4 1.6-6.5 3-8.4 5.9l-20.2 92.3-24 114.7-3.4 21.4L89 511c1.6-11.9 5-22.8 7.2-34.7l12.2-66.2 11-52.8 10.3-50.6 3.1-16.1c-3.8 1.4-6.6 3.4-10 5.6M215 412.5c-.3 1.5-1.5 3.5-.3 4.5 1.4 1.2 3.6 1.4 5 1.9l66.8 22.6 14-74.3 4-22.4c.6-2 1.3-4 1.2-6.2-15.1-6.2-30-11.4-45.5-16.6l-26.6-8.9Zm101.7-62.8-4 23.8q0 .5-.5 1v1.4l-13.5 70 75.9 26.7 8.6-48.7c2.5-16.7 4.8-33 5.6-49.9-23.2-12.3-46.7-22.1-70.8-30.7ZM551.1 451c6.4 2.1 12.8 3.4 19.6 2.3l11.4-35.8-17.6-8.2L548 400l-12.8 39.4c-.3.9-.4 2.8 0 3.6q7.5 5.2 16 8M113 455.7l-5 28.2-4.9 25.6 64 20.5 10.4 3 6.2-25.8L199 430c.2-1.1 1-2.9.3-4.2l-71.8-23.5c-1-.3-3.8-.8-4 .4Zm477.2 7.7c.6 5.2-.1 10.6-2.7 15.3-9.7 17.9-40.5 10.7-58.8 2.7-14.3-6.2-26.6-17.5-22.2-32.8.7-2.6 2.7-5.2 2.9-7.7 3-3.3 6.1-5.5 10.6-8.4-17.6-3.8-35-6.7-53.2-8.6-7.3-.7-14.2-1.2-21.4-.4l29 46.9 23.6 37 85.7 18.3 72.8 15-12-23.9-28.7-51-28.7-10.5Zm-379.2-28-15.1 76.8-5.4 25.7 72 23.9c3-9.5 4.3-18.2 6-26.8l15-76.3c.3-1 1-2.9.3-4.1l-18.6-6.6-18.8-6-34.4-12ZM396.7 610l-7.3 35.6c4.7 16.7 9.9 32.2 16.3 48l16 39.7c2.4-2.6 3.3-5.6 4.5-8.7 7.2-18.6 13.7-36.8 19.2-56q22-77.1 40.6-155l-20.1-32.4-29.3-47.6-11.3 40.6 19.9 9.1c4 3 5.6 7.8 4.8 12.8l-10.8 62.1c-1 6.6-6.8 11.4-13.4 10.5-6.8-1-13-3.4-19.4-5.5Zm176.1-136c3.2-1.6 4.2-5.8 3.8-8.8-16.1 4.2-36.2-2.7-49.4-11.8-2-1.5-3.3-3.4-4.8-6-3.3 3-3.8 8-1 11.7 7 8.7 21.8 13.2 33.3 15.6 6 1.2 12.2 2.2 18.1-.7m-277.3-9.3-14.6 75.4-5.4 26.4 72.2 26 7-25.9q9.7-39 16.8-78.5c.2-.3 1-2.4.2-2.7l-14.5-5.1-26.4-9-34.2-12.3Zm90.4 40-6.3 32 25.8 9.7 19.6 6.3 6.3-32 4.1-26.5c-14.5-7-28.9-12.4-44.1-18.2Zm-67.3 120c7.6-6.5 15-13 21.7-21L258 574.3 182.6 549l-50.3-16.7c-12-4-23.4-8.2-36-11.4q-12.5 9.4-23.6 20.8l108.5 39.6c30.4 11.7 60.5 22.3 91.4 32l40.8 12.8q3 .8 5.2-1.2m138.6 49.3c-6.7 23.2-14.4 45.3-23.2 67.8l130.4 34.5c12.1 3.2 23.5 5.9 36.1 6.5l5-16.3 12-44.5 32.8-133.4 7.8-34.5-66-13.7-95.3-20.2-19.4 78.6Zm267.3-147.4-1.5 7.8-13.6 89.4 71.2 23.5 13.7-101.7-69-25.7c-.8 2.5-.7 4.5-.8 6.7m-23 1c-1.8 1-4.9 2.2-6 4.3l-8 49.4 15.2 5.8 8-52.7 2.1-13.2ZM793.6 648c-.1 1-1.2 3.5 0 4l4.4 1.7 27.7 9.5 40.5 14.1 7-69.4 2.7-26.6c.2-1.5 1-4.4 0-6l-69.1-24.6Zm94.8-61.4-2.7 27.8-7 66.3 7.5 3.7 67 23.6 3.2-40.6 1.8-59.9-39.8-16.7-29.2-10.5Zm-226.4 30-7.6 32.4 13.2 4 20 5.7 4.6-32 3.4-26.4-27.5-10.2Zm37.5 91.1-1.2 12.6-2.8 27.2 69 22.6 4.1-26.5 9.8-78.6c.2-1.1.8-3 .2-4.4l-71-24.4Zm91.6-38.3-10 79.7-3.2 26 74.9 25.7 3.3-26.7 8.5-79.9c0-.7 1-3.3 0-3.7l-72.9-25.4ZM681.9 750l9.4-75.2-16.4-4.4-11.4 96.8ZM877 700.4l-8.3 79-2.9 26.2 63.5 22c3.5 1.2 6.6 2.5 10.1 2.4l4.1-25.6 8.5-83.1-36.9-12.9-37.1-13c-1 1.4-.8 3.3-1 5m32.8 157.1c8.1-4.5 14.5-9 21.4-15.7L869 820.4 770 786l-21.3-6.9-59.4-19.9-21 20.3 47 16.8 45 14.9 75 24.4Z"/><path fill="#bdbdbd" stroke="#bdbdbd" d="M617.5 722c-1 .2-3 .2-4.2-.5-5-3.4-10.2-3.6-16-5.1-35.4-9-69.8-20-104.6-31.2l-30.7-9.8c-1.6-.5-3-1.3-4.8-1.3l20.2-75.2 19.4-78.6 95.3 20.2 66 13.7-7.8 34.5Zm0-58c6.3.9 11.7-8.9 13.8-16l11.1-39.3 8-37.5c1.8-7.9-3.3-13.1-10.6-14.8L567 540.2l-28.9-5c-2.8-.6-6.6.6-7.7 3.6-3 8.7 19 14.4 28.8 17.7l39 13 24.6 8.7q2.6 1 2 3.9l-9 40.3-4.5 23.5c-1.4 7.3 0 17.3 6 18"/><path fill="#8a8a8a" stroke="#8a8a8a" d="M617.5 722l-12 44.6-5 16.3c-12.6-.6-24-3.3-36.1-6.5L434 741.9c8.8-22.5 16.5-44.6 23.2-67.8 1.8 0 3.2.8 4.8 1.3l30.7 9.8c34.8 11.2 69.2 22.1 104.6 31.2 5.8 1.5 11 1.7 16 5 1.1.8 3.1.8 4.2.7M469 727.5l16.3-16.4c2-2 1.5-5 0-6.7-1-1.4-4.1-2.6-6-.9l-17.1 16.8c-2 2-2 5.5-.6 7.1 1.6 1.8 5.2 2.3 7.4.1m18.6 13.3 15.3-15.3c2.5-2.5 1.7-7-1.3-8.3s-5 .5-7.4 2.8l-14.8 13.7c-2.3 2.2-1.8 6 0 7.6 2.4 2 5.7 2 8.2-.5"/><path fill="#6e6e6e" stroke="#6e6e6e" d="M445.4 668.7c-.7-.3-1.6-.5-1.8-1.2l-5.2-16.6-4.4-12.2 10.2-10c2.2-2 2.8-4.9 1.3-7.2-1.2-2-5-3-7.2-1l-23 20.8q-2.2-1-4.7-1.3c-1.7-10.6-6.3-19.7-12.5-28.2-.2-.3.2-1.6 0-1.8q-.6-.2-1.4 0l9.7-46.7c6.4 2.1 12.6 4.5 19.4 5.5 6.6 1 12.3-4 13.4-10.5l10.8-62.1c.8-5-.7-9.9-4.8-12.8l-20-9 11.4-40.7 29.3 47.6 20 32.4q-18.4 77.9-40.5 155m-25.6-44 25-25.6c1.7-1.6 2-4 1.4-6-.5-1.9-2.4-3-4.5-3s-3.3 1.5-5 3.2l-23.4 23.6c-2 2.1-1.7 5.5-.4 7.2 1.2 1.6 4.9 2.6 7 .5"/><path fill="#bdbdbd" stroke="#bdbdbd" d="M509.4 441c.2-4-2.9-7.3-6.7-8.1-11.6-2.5-39.5-7-41.2-.8-.4 1.4.5 4.6 2.6 5.4q20.8 7.7 42.4 11c-4.4 15.4 7.9 26.7 22.2 33 18.3 8 49.1 15.1 58.8-2.8q1.9.3 2.6 2c2 3.3 7.5 3.1 12.7 11.2l17.2 26.3c3.3 5.2 12 10.2 17 5.4 4.3-4-.3-13-3.7-20.3q-8-17-18.6-32.5-9-6.2-19.7-8.7l-4.8 1.3-3-8.1 28.6 10.5 28.8 51 11.9 23.9-72.8-15-85.7-18.3-23.5-37-29-47c7.1-.7 14-.2 21.3.5q27 2.9 53.2 8.6c-4.5 2.9-7.6 5.1-10.6 8.4"/><path fill="#8a8a8a" stroke="#8a8a8a" d="M415.3 641.3c-4 3.7-5.7 8-2.9 10.4 2 1.7 5 2 7 .2l14.6-13.2 4.4 12.2 5.2 16.6c.2.7 1.1 1 1.8 1.2-5.5 19.2-12 37.4-19.2 56-1.2 3.1-2.1 6-4.4 8.7l-16.1-39.7c-6.4-15.8-11.6-31.3-16.3-48l7.3-35.6q.7-.3 1.3 0c.3 0 0 1.4.1 1.7 6.2 8.5 10.8 17.6 12.5 28.2q2.6.3 4.7 1.3m16-120.5-6.3 32-19.6-6.3-25.8-9.7 6.3-32q1.7-.1 3.8.7Z"/><path fill="#e6e6e6" stroke="#e6e6e6" d="M587.5 478.7c2.6-4.7 3.3-10.1 2.7-15.3l4.8-1.3q10.6 2.6 19.7 8.7 10.7 15.4 18.6 32.5c3.4 7.3 8 16.2 3.7 20.3-5 4.8-13.7-.2-17-5.4L602.8 492c-5.2-8-10.7-7.9-12.7-11.3-.7-1-1.2-1.7-2.6-1.9"/><path fill="#bdbdbd" stroke="#bdbdbd" d="M431.3 520.8l-41.6-15.3q-2.1-.7-3.8-.6l5.4-28.8c15.2 5.8 29.6 11.1 44.1 18.2Z"/><path fill="#e6e6e6" stroke="#e6e6e6" d="M509.4 441c-.2 2.4-2.2 5-3 7.6q-21.4-3.5-42.3-11.1c-2.1-.8-3-4-2.6-5.4 1.7-6.2 29.6-1.7 41.2.8 3.8.8 6.9 4 6.7 8m108 223c-6-.7-7.4-10.7-6-18l4.4-23.5 9.2-40.3q.4-2.8-2.1-3.9l-24.6-8.7-39-13c-9.8-3.3-31.8-9-28.8-17.7 1-3 4.9-4.2 7.7-3.7l28.9 5 72.7 16.3c7.3 1.7 12.4 7 10.7 14.8l-8 37.5-11.2 39.3c-2 7.1-7.5 16.9-13.9 16"/><path fill="#000" stroke="#000" d="M487.7 740.8c-2.5 2.4-5.8 2.6-8.1.5-2-1.7-2.4-5.4 0-7.6l14.7-13.8c2.4-2.2 4.3-4.1 7.4-2.7 3 1.4 3.8 5.8 1.3 8.3Zm-18.6-13.3c-2.2 2.2-5.8 1.7-7.4-.1-1.4-1.6-1.5-5.1.6-7.1l17.2-16.8c1.8-1.7 4.8-.5 6 .9 1.4 1.7 1.9 4.7 0 6.7Zm-49.3-102.9c-2 2-5.7 1-6.9-.5-1.3-1.7-1.7-5 .4-7.2l23.4-23.6c1.7-1.7 2.9-3.2 5-3.2s4 1.1 4.5 3c.5 2 .3 4.4-1.3 6Zm14.2 14.1L419.4 652c-2 1.8-5 1.5-7-.2-2.8-2.5-1.1-6.7 2.9-10.4l23-20.8c2.2-2 6-1 7.2 1 1.5 2.3.9 5.1-1.3 7.2Z"/><path fill="#bdbdbd" stroke="#bdbdbd" d="M655 221.3c-1.7-.2-2.6-1-4-2.1-35.2-27-75-48.6-120.4-48.1-3.6 0-7.6 1.5-9 4.5-1.6 3.4 1.3 7 4.5 8l16.7 4.4c30.7 6.6 58.1 21.5 80.7 43.2l16.3 15.7 5.8 4.2-35.2 37.4c-5.2 5.5-6.5 10.7-2.3 17.4 6.5 10.5 15.3 19.5 27.7 23.3 3 1 8.1 1.1 10.4-1.8l33.1-42.4c2 .2 1.6 2.9 2.4 3.6l12.4 12.7q22.6 20.9 32.8 50.2c3.2 9.1 9 19.8 17.2 17.7 13.8-3.4 4.5-29.1-1.6-42.7-9.2-20.5-22.3-39-38-55q-1.2-1.2-.7-2.5c1 0 3.1-1.5 4.2-.3q23.5 26.8 39 58.8c5.8 12.4 12.8 33 12.5 45.7 0 2.6-1.6 4-3.9 4.9-23.4 9.4-60.3 2.3-84.7-6.3q-45.6-16.2-84-45.6c-16.5-12.5-30.4-26.8-43.6-42.6-21.2-25.3-36.4-52.9-39.6-86.2-1.3-8.7 0-17.4 4.7-24.7 7.5-4.6 15.6-5.7 24.5-5.8 45 1.2 85.8 23.6 121 50.3.8.6 2 1 1.7 2Zm-105 35.1 1.4-14.2c.3-2.7-1.8-4.8-4.1-4.8-2.4 0-4 2-4.4 4.6l-2.2 14.7c-.5 3.2 2.3 5.5 5 5.3q3.9-.3 4.3-5.6m15.9 16 .7-14.2c.2-3.1-2.8-5-5.3-4.5-2.7.4-3.2 2.7-3.6 5.5l-2 13.7c-.2 2.3.8 4.5 2.4 5.6 1.7 1.2 4.1 1.2 5.9-.2q2-1.8 1.9-5.9"/><path fill="#8a8a8a" stroke="#8a8a8a" d="M527.5 288.7c1.4 15.6 12.2 33.4 22.2 47.5 12.8 18 27 34.3 43.7 48.6 7.3 6.2 18.2 17.6 11 21-35.8-12-67.7-32.8-91.7-62-10-12-17-24.9-22-39.5q-9.6-28.7-8.6-59.1c.4-13.6 1.6-26.5 6.5-39.8 5.2 32.1 19.4 58.7 38.9 83.3"/><path fill="#8a8a8a" stroke="#8a8a8a" d="M604.4 405.7c7.2-3.3-3.7-14.7-11-20.9-16.8-14.3-31-30.6-43.7-48.6-10-14-20.9-32-22.2-47.5q31 39.7 73.9 66.5c39.5 24.5 85 43.6 133.2 42.8-23.5 15.6-57 17.4-84.4 16.1q-23.5-1-45.8-8.4"/><path fill="#e6e6e6" stroke="#e6e6e6" d="M655 221.3c-.4 6.2-.6 11.8 1.5 17.8l-11 12-5.7-4.2-16.3-15.7c-22.6-21.7-50-36.6-80.7-43.2l-16.7-4.5c-3.2-.8-6-4.5-4.5-7.9 1.4-3 5.4-4.5 9-4.5 45.3-.5 85.2 21 120.5 48 1.3 1.1 2.2 2 4 2.2m48.7 47.7q-.3 1.4.8 2.5c15.6 16 28.7 34.5 38 55 6 13.6 15.3 39.3 1.5 42.7-8.3 2.1-14-8.6-17.2-17.7q-10.2-29.3-32.8-50.2l-12.4-12.7c-.8-.7-.4-3.4-2.4-3.6l12.3-16.2q6.5.8 12.2.2"/><path fill="#bdbdbd" stroke="#bdbdbd" d="M718 244.9c-1.9-4.2-5.8-4.2-9.8-4.5-12.7-1.2-24-10.2-28.1-22-1-2.8-.6-5.6-3-7.9 8-8.7 21.3-13.3 32.7-7.9 6.1 3 11 9.7 13.4 15.9 3.5 9.2.5 19.2-5.2 26.4m-1.7-19.2c1.5-.6 3.4-2.7 3.4-5 .1-8.6-6.4-15.3-14.6-17.4-3.7-1-7.6-.9-9.9 2.6-1.5 2.4.7 5 3 5.7 12.5 3.9 11.2 16.3 18 14"/><path fill="#8a8a8a" stroke="#8a8a8a" d="M718 244.9q-5.4 7-14.3 9c-12.2 2.8-25.2-3.2-30.8-14.3-5.3-10.2-3.3-20.8 4.2-29.1 2.4 2.3 2 5 3 8 4.2 11.7 15.4 20.7 28 21.9 4.1.3 8 .3 10 4.5M551.2 451c-.2-1.8.7-3.4 1.3-5.3l12-36.4 17.6 8.2-11.4 35.8c-6.8 1.1-13.2-.2-19.6-2.3"/><path fill="#6e6e6e" stroke="#6e6e6e" d="M564.5 409.3l-12 36.4c-.6 2-1.5 3.5-1.4 5.3q-8.5-2.8-15.9-8c-.4-.8-.3-2.7 0-3.6L548 400Z"/><path fill="#8a8a8a" stroke="#8a8a8a" d="M628 308l34-39.2 7.7-9.7 9.1 6-39.5 50.5c-4.7-1.7-8-4.6-11.4-7.6"/><path fill="#4a4a4a" stroke="#4a4a4a" d="M669.7 259.1l-7.7 9.7-34 39.2q-5-4.5-7.7-10.6l42.3-46Zm-96.9 215c-5.9 3-12.1 2-18 .7-11.6-2.4-26.4-6.9-33.3-15.6-3-3.7-2.4-8.7 1-11.6 1.4 2.5 2.6 4.4 4.7 5.9 13.2 9.1 33.3 16 49.4 11.8.4 3-.6 7.2-3.8 8.8"/><path fill="#000" stroke="#000" d="M565.8 272.4q0 4-2 5.9c-1.7 1.4-4 1.4-5.8.2-1.6-1-2.6-3.3-2.3-5.6l1.9-13.7c.4-2.8.9-5.1 3.6-5.5 2.5-.4 5.5 1.4 5.3 4.4Zm-16-16q-.3 5.3-4.3 5.6c-2.6.2-5.4-2-5-5.3l2.3-14.7c.4-2.6 2-4.6 4.4-4.6 2.3 0 4.4 2 4.1 4.8Z"/><path fill="#e6e6e6" stroke="#e6e6e6" d="M716.3 225.7c-6.9 2.2-5.6-10.2-18-14-2.4-.8-4.6-3.4-3-5.8 2.2-3.5 6.1-3.5 9.8-2.6 8.2 2 14.7 8.8 14.6 17.5 0 2.2-1.9 4.3-3.5 4.9"/><path fill="#0b5fa5" stroke="#0b5fa5" d="M318.6 624.8q-2.3 2-5.2 1.2l-40.8-12.8c-31-9.7-61-20.3-91.4-32L72.7 541.6q11.1-11.4 23.6-20.8c12.6 3.2 24 7.4 36 11.4l50.3 16.7 75.4 25.4 82.3 29.5c-6.6 8-14.1 14.5-21.7 21"/><path fill="#0a84c9" stroke="#0a84c9" d="M145 294.3c.2 4.7 3.6 8.3 8.2 10q26.3 9.4 53.3 17.2c3 .9 7.6-.3 8.2-3 .9-4.1-2.7-7.4-6.1-9.3-12.4-6.5-25.2-11-38.3-16-8.2-3-17.6-5.6-24.4-2.6.5-1.8.2-4 1.6-5.3 5 .1 9 1.8 13.6 3.3l60.9 20.3-19.6 104-20.7-6.8-56-17.8 14.4-70.6Zm159.7 50.5-2.8-2.3c-12.4-5.5-24.8-9.9-37.6-14.4-11.5-4-29.4-11.3-31.4-1-.7 3.4 1.8 7 4.7 9.2 17 12.6 35.8 21.7 55.7 28.7 2.7 1 4.8 2.2 7.4 2.2l-14.1 74.3-66.8-22.6c0-1.2-1.5-1.3-2.1-2.3l-2.6-4 18.6-99.5 26.6 9q23 7.4 45.5 16.5-.2 3.2-1.1 6.2m26.1 126.6 26.4 9c1.8 2.6 5 3.8 8.1 5.1l6.2 2.7q-7.1 39.6-16.8 78.5L349 564l-62.7-22.6c-2-.7-3.4-1.2-5.4-1.2l14.6-75.4c4.8-2 9.4.3 14.4 1.5ZM199 430l-15.3 77.3-60.1-19c-5.4-1.6-10.2-4-15.6-4.3l5-28.2c.3.5.3 1 1.1 1.4q5.6-24.6 9.6-50.3c4.6-.7 8.6.3 13 1.6l39 12 17.9 6.4c2 .7 3.5 3.1 5.4 3.1m47.4 12 18.8 6.1c0 1.2 1.2 2 2.5 2.5l13.3 6 2.6 2.2-15 76.3-68-22q-2.3-.9-4.7-.8l15-76.8 6.5-.7c9.9 3 19.3 5.9 29 7.2m66-66q2.8.7 5.4 2.7c12.5 7.9 24.6 15.4 37.7 22.1 1 .5 1.1 2.7 1.1 3.6l.1 35.7c0 7.7 4.1 16.6 9.6 16.3 12.9-1 15.1-51.5 15.7-67.9-.5-4.5-1.9-9-6-11.4-15.3-9.3-31.3-17-47.8-24.3q-5.6-2.4-11.4-3l1.3-6.4c24.1 8.6 47.6 18.4 70.8 30.7-.8 16.9-3 33.2-5.6 50l-8.6 48.6-76-26.7Z"/><path fill="#0b5fa5" stroke="#0b5fa5" d="M123 296.2c2.4 2.2 5.6 4.3 5.6 8v1.7c0 .6.7.9 1.2.8l-10.4 50.6-11 52.8-12.1 66.2C94 488.2 90.7 499.1 89 511l-22.2 19.5 3.4-21.4 24-114.7 20.2-92.3c1.8-3 6-4.3 8.5-6"/><path fill="#58b8e8" stroke="#58b8e8" d="M312.3 376v-1.6c.5.3 1 0 .4-.9l4.1-23.8q5.8.6 11.4 3c16.5 7.3 32.5 15 47.8 24.3 4.1 2.5 5.5 6.9 6 11.4-.6 16.4-2.8 67-15.7 67.9-5.5.3-9.6-8.6-9.6-16.3v-35.7c0-1-.2-3.1-1.2-3.6-13-6.7-25.2-14.2-37.7-22q-2.6-2-5.5-2.8"/><path fill="#0b5fa5" stroke="#0b5fa5" d="M354.7 566.7l-7 25.8-72.2-25.9 5.4-26.4c2 0 3.5.5 5.4 1.2L349 564Zm-171-59.5-6.2 25.8-10.3-3-64-20.5 4.8-25.6c5.4.3 10.2 2.7 15.6 4.4Zm84.8 27.8c-1.7 8.6-3 17.3-6 26.8l-72-23.9 5.4-25.7q2.3 0 4.7.9Z"/><path fill="#58b8e8" stroke="#58b8e8" d="M304.7 344.8l-4 22.4c-2.6 0-4.7-1.2-7.4-2.2-20-7-38.8-16-55.7-28.7-2.9-2.2-5.4-5.8-4.7-9.2 2-10.3 19.9-3 31.4 1 12.8 4.5 25.2 9 37.6 14.4ZM145 294.3l1-3.7c6.7-3 16.1-.4 24.3 2.6 13 5 26 9.5 38.3 16 3.4 1.9 7 5.2 6 9.3-.5 2.7-5.1 3.9-8 3q-27-7.8-53.4-17.2c-4.6-1.7-8-5.3-8.2-10m54 135.6c-2 0-3.5-2.4-5.4-3l-17.8-6.6-39.2-12c-4.3-1.2-8.3-2.2-12.9-1.5q-4 25.7-9.6 50.3c-.8-.4-.8-.9-1.1-1.4l10.5-53c.2-1.3 3-.8 4-.5l71.8 23.5c.7 1.3 0 3-.3 4.2m47.4 12c-9.7-1.3-19.1-4.2-29-7.2l-6.4.7 1-5.4Zm84.4 29.5-20.9-5c-5-1.3-9.6-3.7-14.4-1.6l1.1-5.7Z"/><path fill="#0a84c9" stroke="#0a84c9" d="M129.8 306.7q-1 0-1.2-.8v-1.7c0-3.7-3.2-5.8-5.6-8 3.3-2.2 6.1-4.2 10-5.6Z"/><path fill="#58b8e8" stroke="#58b8e8" d="M283.6 458.7l-2.6-2.1-13.3-6.1c-1.3-.6-2.5-1.3-2.5-2.5l18.6 6.6c.7 1.2 0 3-.2 4.1m88 29.5-6.3-2.7c-3-1.3-6.3-2.5-8-5.1l14.4 5.1c.7.3 0 2.4-.2 2.7m-151.7-69.3c-1.4-.5-3.6-.7-5-1.9-1.2-1 0-3 .3-4.5l2.6 4c.6 1 2.2 1.2 2.1 2.4"/></svg>