<svg xmlns="http://www.w3.org/2000/svg" width="1024" height="1024" viewBox="0 0 1024 1024" stroke-linejoin="round" stroke-width="1.5"><path fill="#000" stroke="#000" d="M282.2 752.5 264 737.8l-16.3-12c-13.3-8.3-25-17.9-36-29.2-10.2-10.5-20.6-20-31.8-29.4q-8.7-7.5-15.1-17-10.9-15.7-24.2-29.6c-7.3-7.7-12.8-16-18.2-25.1L111.6 577c-8.1-11.3-13.7-23.4-19.6-36l-12.6-27c-7-12-12.8-23.7-18.7-36.1-6.5-13.5-10.5-26.9-11-42-.2-11.1-2.7-22-1.2-33.3l4.7-34.8c.9-6 3.8-11.7 6.6-17 5.6-10.3 9.5-20.5 13.8-31.5q11.8-29 30.8-54c9.6-12.5 21.1-21.8 32.8-32.4 28.4-25.8 63-42.3 101.3-47.3l39-5.1c29.3-3.9 51 4.7 76.4 17.5l18.2 7.3c9.6 4 18 8.9 26.2 15.3l13.7 10.7c10.7 8.4 21.5 15.9 30.8 25.8 8.8 7.3 15.3 16.2 21.2 26l13.8 22.6 21.5-35.1 23-34.7c13.6-20.6 32-37 52.5-51 12.2-8.3 23.2-16.3 33.7-26.7 9.3-9.1 19.1-17 30.5-23.2l33.7-18.3c22.7-12.4 46.5-21.4 72.3-24.7 16.7-2.1 33-.2 49.3 3.3l32.7 6.9c16.4 3.4 31.8 8.7 44.4 19.7l26.2 22.8 26.4 30.2c7 8.1 11.8 16.5 16.6 26 4.8 9.7 11 18.2 13.3 29.1 3.3 16.6 7.8 32.2 12.8 48.3 4.2 13.6 6.1 27 5 41.3q-1.3 12.6 1.6 24.8c3.2 13.5 3.5 26.5 1.1 40.2l-8.7 48.7c-3.4 12.4-9.1 23.4-14 35.2l-12.2 30.1q-4.9 16.1-14.7 29.6c-8.5 11.8-15 23.9-22 36.7-13.2 24.7-29.8 46.5-48 67.8l-25.1 33.5-18.3 27.9c-8.5 15-20 26.7-30.8 40-16.2 20-34 37-53.2 54.2L692 819.9l-44.8 42-25.4 21.8-37.2 28.6c-9.1 7-18.4 13-28.9 17.3-11.8 4.8-23.7 4.3-34.9-1.6L486 905.5c-8.2-5.3-15.6-10.3-23.2-16.5l-38-31c-10.8-8.8-20.7-17.4-32.8-24.6-14.4-8.6-27.3-18-40.3-28.6-7.6-6.2-15.2-12-24-16.5-10.4-5-19.4-11.3-27.3-20-5.5-6-11.7-10.6-18-15.8M221.7 223c-9.3 2.6-18.9 4.2-27.6 9.4-12.7 7.5-25 14.8-36.7 23.8-10.3 8-18.5 17.7-27.5 26.8-5.5 1.6-8.3 9-11.5 14.2l-5 8.2c-7.2 11.4-14 22.8-17.6 35.8-2.8 10-10.8 17.9-14.6 42.6-2.3 14.3-3.3 28-1.1 42.4l1 17c1.1 19.5 20.7 41 29.4 63.9s20.2 42.6 33.5 62.7c8.6 13 16.4 24.8 27.3 36.2l35.4 37c12.4 13 24.3 25 38.1 36.6l35.8 30c10 8.4 19.5 16 29.7 23.2l13.6 12.9c11.9 11.3 26.8 16.7 39 28 10.5 9.8 21.6 18.2 34.4 25 5.9 3.2 11.8 6.6 16.6 10.6l3.3 4.4 18.2 14.8c5.3 4.3 10.5 8.4 16.6 11.7 8 4.5 14.7 10 21 16.6 11.1 11.7 23.6 20.4 37 29.2l19.8 13c7.9 5.2 17.1 4 25.1-1l20.8-13.3 25.7-20.4 15.9-14.3 20-16.8 27.8-27.8 16.2-15 25-23.2 37-37.3 25.8-29 16-19.8 15.9-20c12-15.4 23.8-30.4 33.9-47.2l12.7-17.5 18.8-23.7q17.5-22.5 29.9-48.3l16.3-33.8c8.4-17.5 13-36 19-54.4l8.8-26.3 4.5-38c3.4-28.6-6.8-47.7-8-74.9-.3-9.8-2.4-18.4-5.5-27.6l-7.9-23.3q-3-8.9-7.5-17l-12.3-22.7q-5-9.4-12.7-17.4l-38.8-39.3c-7.9-8-17.5-12.2-28.3-14.4l-31.3-6.3c-12.6-2.5-24.8-4.7-37.8-5-16.6-.3-32.8 2-47.5 9.4l-31.3 16c-17.3 8.7-33.2 18.5-48.1 31-10.4 8.6-20.3 16.7-31.3 24.4-11.6 8-21.6 17-31.8 26.7-16.2 15.4-29.2 32.5-40.6 51.8l-23.2 39c-8 13.7-11 26.9-17 33.1-4.8 5.2-12.4 5.5-18 1-5-3.7-7.9-9.1-10.6-14.8-4.5-9.3-9.1-18-14.7-26.6L428 295.5c-3.7-5.8-7.3-11.2-12.6-15.8l-12.5-11c-5-4.3-9-9.4-14.8-12.6-7-4-14.1-7.5-20.5-12.5-7-5.4-14.6-8.8-22.9-12.1l-35-14c-22.1-8.8-32.5-4.5-51.4-2q-18.9 2.6-36.6 7.5"/><path fill="#b02e6c" stroke="#b02e6c" d="M221.8 223c0 1.1 1.1 1.4 2 .8 6 .1 10.8 4.1 13.7 8.3 5.8 8.7.9 18.3-6.6 26.8-18.7 21-34.7 44-45.8 70-4.1 9.5-6.3 18.7-7 28.9l-.4 1.7q0 .6 1 .5c-3.5 8.5-8.5 20.4-2.2 27.2-.3.3-.9.7-.9 1.3l-.7 28.2q-.1 10.8 6.2 19.1c6.4 8.3 8.6 18.5 6.9 29-3.6 21.6 11.1 37.3 26.9 51.5 17.9 16.1 30.5 35.3 49.9 52.8l13.4 12c9 8.3 18.4 15.2 29.5 20.6l23.4 11.4q17.3 10.5 22.9 30 4.2 14.9 17.6 23c14.4 8.6 30.5 13.4 47.3 15.9q12.5 1.8 22 10l23.1 20.2c9.8 8.5 18.2 17.5 26 27.9 5.4 7.3 11 14.1 18.9 18.7 10 5.8 21.3 5.7 30.9-.6 8.1-5.5 17.2-8.6 26.7-11l27.2-6.7q22.7-7 46-8.4c15.8-.9 28.5 6.5 36.6 19.8 7.3 11.9 9.8 25.2 5 38.5l-16 15-27.8 27.8-20.1 16.8c1-6.5-1-13.4-6.6-17.2-5-3.5-12-3.7-18-.6-10.6 5.5-17.2 22.8-35.5 30.2-8 3.2-17.2 3.6-24.7-1-6.4-4-12.6-7.6-19.8-10.4-17.1-6.5-32.4-15.2-48.5-24l-40-16.5c-3.5-1.4-6.9-2.6-10.3-1.2-4.8-4-10.7-7.4-16.6-10.6q-19-10.2-34.4-25c-12.2-11.3-27.1-16.7-39-28l-13.6-13c-2-10.1-15.1-20.8-20.5-28.4-15-21.1-29.8-41.2-46.8-60.7-8.2-9.5-14.3-19.9-20-30.8l-19.3-36.4c-4.3-8.2-8.5-16.1-15.3-22.6-5.1-4.9-10.9-9-15.1-14.9-11.6-15.7-21.6-48.4-27.4-68.9-2.3-7.8-4.5-15.3-4.7-23.5-.2-7-.5-13.7-2-20.6-2-8.3-2.2-16.6-1.4-25.2l3.4-36.4 8-48.6L155 296c1.4-4.5 0-9.5-3.1-12.7-2.8-2.8-7.6-4.8-12.2-3.4l-9.8 3c9-9.1 17.2-18.9 27.5-26.8 11.7-9 24-16.3 36.7-23.8 8.7-5.2 18.3-6.8 27.6-9.4"/><path fill="#b02e6c" stroke="#b02e6c" d="M310.4 732.8c-10.2-7.2-19.8-14.8-29.7-23.1L245 679.6c-13.8-11.6-25.7-23.6-38-36.5L171.3 606c-10.9-11.4-18.7-23.1-27.3-36.2-13.3-20.1-24.9-39.9-33.5-62.7-8.7-23-28.3-44.4-29.4-64l-1-16.9c-2.2-14.4-1.2-28.1 1-42.4 3.9-24.7 12-32.5 14.7-42.6 3.6-2.5 4.9-6.6 7-10.5 4-7.7 8.3-15 11.4-23.5.4-1 .4-1.6-.9-1.8l5-8.2c3.3-5.2 6-12.6 11.6-14.2l9.8-3c4.6-1.4 9.4.6 12.2 3.4 3.1 3.3 4.5 8.2 3.1 12.7l-5.9 19.6-8 48.6-3.3 36.4q-1.3 12.8 1.3 25.2c1.6 7 2 13.6 2.1 20.6.2 8.2 2.4 15.7 4.7 23.5 5.8 20.5 15.8 53.2 27.4 68.9 4.2 5.8 10 10 15.1 15 6.8 6.4 11 14.3 15.3 22.5l19.2 36.4c5.8 11 12 21.3 20.1 30.8 17 19.5 31.9 39.6 46.8 60.7 5.4 7.6 18.5 18.3 20.5 28.5m307 117.2-15.9 14.3-25.7 20.4L555 898c-8 5.1-17.2 6.3-25 1.1l-20-13c-13.3-8.8-25.8-17.5-36.9-29.2-6.3-6.6-13-12.1-21-16.6q-8.8-5.1-16.6-11.7l-18.2-14.8-3.3-4.4c3.4-1.4 6.8-.2 10.2 1.2l40 16.6c16.2 8.7 31.5 17.4 48.6 24 7.2 2.7 13.4 6.3 19.8 10.3 7.5 4.6 16.7 4.2 24.7 1 18.3-7.4 25-24.7 35.5-30.2 6-3 13-2.9 18 .6 5.5 3.8 7.5 10.7 6.6 17.2"/><path fill="#b02e6c" stroke="#b02e6c" d="M96 341.2c3.5-13 10.3-24.4 17.4-35.8 1.3.2 1.3.8 1 1.8-3.2 8.5-7.4 15.8-11.6 23.5-2 3.9-3.3 8-6.9 10.5"/><path fill="#f4a3c8" stroke="#f4a3c8" d="M865.8 354.2c-8.6-16.4-4.8-31.3-15.6-53.6L830.4 260 818 234.8c-5.5-11-14.2-18.4-25.2-23.9-17.9-8.9-35.1-17.8-51-30-5.4-4-9.7-9.4-10-16.3-.5-9.6 7.6-17.6 17.7-18.4 26-2 51.3 3.3 75.5 12.6 32.5 12.6 42.1 22.6 62 49.5q16.9 23 21.4 51.3l7.3 45.4c3.8 23.8 3.3 48.6-19.7 59.4-11.3 5.4-24 1.3-30-10.2m-512.1-37.8L340 304.1c-12.3-8.2-25.7-13.8-39.8-18.5l-27.7-9.2c-10-3.3-18.9-11.4-18-21.3.9-9.2 10-15.7 19.7-17 28-3.7 55.7-3.4 77.8 15.5 12.7 10.8 23.3 23.3 32.7 37 4 5.8 6.4 12.7 6.3 19.4-.2 9.7-7.3 16-16.6 15.9-7.8-.2-14.6-4-20.7-9.5M881 505.1c-7.5 12.5-19.4 24.7-31.7 19-12-5.7-10.5-27.1-6.1-40.6l9.6-29.2 10.8-37.2c5-17.3 18.8-35.7 35.5-30.2 6.2 2 11.1 8.2 12.5 15.6 1.4 8 .1 16-1.7 24l-7.5 34.2q-8.7 23.3-21.4 44.4"/><path fill="#000" stroke="#000" d="M693.3 643c-7.8 11.9-6.9 20-14.5 20.5-3 .1-5.9-2.1-6.9-5.5-1.4-4.6-.5-9.6 1.8-14 7.4-14 29.7-52.6 40.3-42 1.4 1.4 2.7 4.8 1.1 7.2Zm30.7 70.7c-1.8 2.8-4.9 4.3-7.4 4.2-2.6 0-5.5-1.5-6.5-4.5-1.4-4.4-.5-9.2 2-13l17-25.4c5.8-8.6 17.5-17.8 22.9-11.6 1.8 2 2.5 6 .6 8.7L737 693.2ZM704 687c-1.4 3-4.4 3.8-7.1 3.3-2.1-.3-4.6-1.7-5.5-4.5-1.5-4.3-.6-9 1.7-12.9 5.7-9.6 11.6-18.8 19-27.2 6.3-7 15.3-14 20.3-8.9 1.8 1.9 2.2 5.6.4 8L708 679.2Z"/><path fill="#e0569a" stroke="#e0569a" d="M681.4 790.4c4.7-13.3 2.2-26.6-5-38.5-8.2-13.3-20.9-20.7-36.6-19.8q-23.5 1.4-46 8.4l-27.3 6.7c-9.5 2.4-18.6 5.5-26.7 11-9.6 6.3-21 6.4-31 .6-7.8-4.6-13.4-11.4-18.9-18.7-7.7-10.4-16.1-19.4-25.9-27.9L441 692q-9.5-8.2-22-10c-16.8-2.5-32.9-7.3-47.3-15.9q-13.5-8.1-17.6-23-5.6-19.5-23-30l-23.3-11.4c-11-5.4-20.4-12.3-29.5-20.5L264.8 569c-19.4-17.5-32-36.7-50-52.8-15.7-14.2-30.4-30-26.8-51.5 1.7-10.5-.5-20.7-6.9-29q-6.3-8.4-6.2-19l.7-28.3c0-.6.6-1 .9-1.3 1.9 2 5 2.6 7.6 1.7 6.2-2.1 4.2-9.5 8.3-17.8l15-30.9c1.2-2.4.4-5.8-1-7.4-4-4.6-12.2-1-17.3 6.8q-6.2 10-10.4 20.4-1 .1-1-.5l.4-1.7c.7-10.2 2.9-19.4 7-29 11.1-26 27.1-48.8 45.8-70 7.5-8.4 12.4-18 6.6-26.7-2.9-4.2-7.7-8.2-13.7-8.3-.9.6-2 .3-2-.8q17.7-4.9 36.6-7.5c18.9-2.5 29.3-6.8 51.4 2l35 14c8.3 3.3 15.8 6.7 22.9 12.1 6.4 5 13.4 8.6 20.5 12.5 5.8 3.2 9.9 8.3 14.8 12.6l12.5 11c5.3 4.6 8.9 10 12.6 15.8l12.6 19.5c5.6 8.6 10.2 17.3 14.7 26.6 2.7 5.7 5.7 11 10.6 14.9 5.6 4.4 13.2 4.1 18-1 6-6.3 9-19.5 17-33.1l23.2-39.1c11.4-19.3 24.4-36.4 40.6-51.8 10.2-9.8 20.2-18.7 31.8-26.7 11-7.7 21-15.8 31.3-24.4 14.9-12.5 30.8-22.3 48.1-31l31.3-16c14.7-7.4 30.9-9.7 47.5-9.3 13 .2 25.2 2.4 37.8 5l31.3 6.2c10.8 2.2 20.4 6.4 28.3 14.4L891 189q7.7 7.9 12.8 17.4L916 229c3 5.6 5.5 11 7.5 17.1l7.9 23.3c3 9.2 5.2 17.8 5.6 27.6 1 27.2 11.3 46.3 8 75l-4.6 38-8.7 26.2c-6.1 18.5-10.7 37-19.1 54.4l-16.3 33.8c-8.4 17.3-18 33.2-30 48.3l-18.7 23.7L835 614c-10.1 16.8-21.8 31.8-34 47.1l-15.7 20.1-16 19.8-25.8 29-37.2 37.3Zm184.4-436.2c6 11.5 18.8 15.6 30.1 10.2 23-10.8 23.5-35.6 19.7-59.4l-7.3-45.4q-4.4-28.4-21.5-51.3c-19.8-26.9-29.4-37-61.9-49.5-24.2-9.3-49.6-14.6-75.5-12.6-10 .8-18.2 8.8-17.7 18.4.3 7 4.6 12.4 10 16.4 15.9 12 33.1 21 51 29.9 11 5.5 19.7 13 25.2 23.9l12.5 25.2 19.8 40.6c10.8 22.3 7 37.2 15.6 53.6m-512-37.8c6 5.5 13 9.3 20.7 9.5 9.3.1 16.4-6.2 16.6-15.9 0-6.7-2.4-13.6-6.3-19.4-9.4-13.7-20-26.2-32.7-37-22-18.9-49.8-19.2-77.8-15.5-9.8 1.3-18.8 7.8-19.7 17-.9 10 8 18 18 21.3l27.7 9.2c14 4.7 27.5 10.3 39.8 18.5ZM213.6 399l12-24.8c1.3-2.8.3-6.1-1.3-7.7-5.3-5.4-15.4 2.9-19 11l-10 22c-1.8 4-1.9 8.8-.2 13 1.4 3.3 4.9 5 8 4.6 7.1-1.1 5.6-8.1 10.5-18M881 505q12.6-21.2 21.4-44.4l7.5-34.1c1.8-8 3.1-16 1.7-24.1-1.4-7.4-6.3-13.6-12.5-15.6-16.7-5.5-30.5 13-35.5 30.2l-10.8 37.2-9.6 29.2c-4.5 13.5-5.8 34.9 6 40.5 12.4 5.8 24.3-6.4 31.8-18.9m-643.5-69.9c3.5-9 7.4-17.3 11.8-25.8 3.4-6.5 3.2-15-1.4-17.4-6.2-3.3-13 2.4-16.1 10l-12.6 30c-1 2.6.3 6 1.9 7.6s3.6 2.8 6.5 2.6c4.2-.3 8.4-3 10-7M693.2 643l21.8-33.7c1.6-2.4.3-5.8-1-7.1-10.7-10.7-33 28-40.4 42-2.3 4.3-3.2 9.3-1.8 14 1 3.3 3.9 5.5 6.9 5.4 7.6-.4 6.7-8.6 14.5-20.6m10.8 44 4-7.8 24.8-34.4c1.8-2.4 1.4-6.1-.4-8-5-5.2-14 1.9-20.3 9-7.4 8.3-13.3 17.5-19 27.1-2.3 4-3.2 8.6-1.7 13 .9 2.7 3.4 4.1 5.5 4.4 2.7.5 5.7-.3 7.1-3.3m20 26.7 13-20.5 15.6-21c1.9-2.7 1.2-6.7-.6-8.8-5.4-6.2-17.1 3-22.9 11.6l-17 25.4c-2.5 3.8-3.4 8.6-2 13 1 3 4 4.5 6.5 4.5s5.6-1.4 7.4-4.2"/><path fill="#000" stroke="#000" d="M176.5 387.2c-6.3-6.8-1.3-18.7 2.2-27.2q4.2-10.5 10.4-20.4c5-7.9 13.2-11.4 17.3-6.8 1.4 1.6 2.2 5 1 7.4l-15 31c-4 8.2-2.1 15.6-8.3 17.7-2.5 1-5.7.3-7.6-1.7m61 48c-1.5 4-5.7 6.7-9.9 7-2.9.2-5-1-6.5-2.6-1.6-1.7-3-5-1.9-7.7l12.6-29.9c3.2-7.6 10-13.3 16-10 4.7 2.4 5 11 1.5 17.4q-6.6 12.6-11.8 25.8m-24-36.2c-4.8 10-3.3 17-10.4 18-3.1.5-6.6-1.2-8-4.6-1.7-4.1-1.6-8.8.2-13l10-22c3.6-8 13.7-16.3 19-10.9 1.6 1.6 2.6 4.9 1.2 7.7Z"/></svg>